<svg width="420" height="223" viewBox="0 0 420 223" fill="none" xmlns="http://www.w3.org/2000/svg">
<rect width="420" height="223" fill="white"/>
<g filter="url(#filter0_f)">
<path d="M22.8338 16.8725L22.3921 28H23.2946L23.6835 18.1446L27.9607 26.5263H28.676L32.8956 18.1542L33.294 28H34.2349L33.7789 16.8725H32.5932L28.3399 25.2973L24.0435 16.8725H22.8338ZM43.2648 27.4623C42.8808 27.2847 42.7752 26.8719 42.7752 26.0558V22.6187C42.7752 20.8905 41.6423 20.0168 39.6405 20.0168C38.6564 20.0168 37.6003 20.228 36.8034 20.7081L37.1106 21.3945C37.8499 21.0345 38.666 20.8329 39.5493 20.8329C40.9558 20.8329 41.8775 21.3321 41.8775 22.8923V23.694C41.1046 23.5356 40.3221 23.4203 39.5252 23.4203C37.1634 23.4203 36.0785 24.4572 36.0785 25.9022C36.0785 27.4191 37.2786 28.1584 38.7764 28.1584C40.2597 28.1584 41.4694 27.4191 41.9015 26.6751L41.9111 26.6799C41.9111 27.7312 42.4823 28.1584 43.1496 28.1584L43.2648 27.4623ZM41.8775 24.462V25.1533C41.8775 26.4302 40.2933 27.3519 38.8676 27.3519C37.9699 27.3519 36.981 26.9871 36.981 25.8734C36.981 24.8557 37.8019 24.2028 39.6501 24.2028C40.5141 24.2028 41.3302 24.3468 41.8775 24.462ZM45.2818 26.5599C45.2818 27.6688 45.8579 28.1584 46.5684 28.1584L46.6836 27.4335C46.2899 27.2511 46.1891 26.8047 46.1891 25.9886V16.3588L45.2818 16.5509V26.5599ZM55.0584 27.2271L54.612 26.6079C53.8871 27.0687 53.1382 27.3327 52.2549 27.3327C50.4163 27.3327 49.2786 26.1854 49.1682 24.3804H55.7209C55.7353 24.2892 55.7497 24.0876 55.7497 23.886C55.7497 21.7306 54.3143 20.0168 52.0965 20.0168C49.9555 20.0168 48.2417 21.6106 48.2417 24.1452C48.2417 26.7375 50.0323 28.1584 52.2117 28.1584C53.2822 28.1584 54.2999 27.8128 55.0584 27.2271ZM49.1874 23.6172C49.3122 22.057 50.4739 20.8425 52.1013 20.8425C53.8055 20.8425 54.7896 22.177 54.8328 23.6172H49.1874ZM57.311 26.6319L56.8598 27.2559C57.5702 27.76 58.4631 28.1584 59.6152 28.1584C61.1898 28.1584 62.4907 27.4191 62.4907 25.9118C62.4907 23.1467 58.0983 24.2172 58.0983 22.1482C58.0983 21.1641 59.0824 20.8281 59.9753 20.8281C60.6665 20.8281 61.3386 21.0345 61.8715 21.3369L62.2651 20.6889C61.6218 20.276 60.8009 20.0168 59.9081 20.0168C58.4679 20.0168 57.191 20.6937 57.191 22.201C57.191 24.9997 61.5786 23.934 61.5786 25.9742C61.5786 27.0399 60.3929 27.3375 59.5192 27.3375C58.6647 27.3375 57.9879 27.0543 57.311 26.6319ZM71.1238 20.1752H70.2165V24.6205C70.2165 26.1806 69.0644 27.3135 67.4467 27.3135C65.8913 27.3135 65.1904 26.267 65.1904 24.6733V20.1752H64.2831V24.9037C64.2831 26.8863 65.3824 28.1584 67.3554 28.1584C68.5652 28.1584 69.5205 27.6784 70.2117 26.6991L70.3269 28H71.1238V20.1752ZM80.1086 27.4623C79.7245 27.2847 79.6189 26.8719 79.6189 26.0558V22.6187C79.6189 20.8905 78.486 20.0168 76.4842 20.0168C75.5001 20.0168 74.444 20.228 73.6471 20.7081L73.9544 21.3945C74.6936 21.0345 75.5097 20.8329 76.393 20.8329C77.7995 20.8329 78.7212 21.3321 78.7212 22.8923V23.694C77.9484 23.5356 77.1659 23.4203 76.369 23.4203C74.0072 23.4203 72.9223 24.4572 72.9223 25.9022C72.9223 27.4191 74.1224 28.1584 75.6201 28.1584C77.1035 28.1584 78.3132 27.4191 78.7452 26.6751L78.7548 26.6799C78.7548 27.7312 79.3261 28.1584 79.9934 28.1584L80.1086 27.4623ZM78.7212 24.462V25.1533C78.7212 26.4302 77.1371 27.3519 75.7113 27.3519C74.8136 27.3519 73.8247 26.9871 73.8247 25.8734C73.8247 24.8557 74.6456 24.2028 76.4938 24.2028C77.3579 24.2028 78.174 24.3468 78.7212 24.462ZM88.419 28H89.2159V16.3588L88.3086 16.5509V21.5146H88.299C87.6557 20.5497 86.6188 20.0168 85.4331 20.0168C83.5513 20.0168 81.6263 21.3513 81.6263 24.1404C81.6263 26.9487 83.5801 28.1584 85.3899 28.1584C86.6236 28.1584 87.5933 27.6064 88.299 26.6127L88.419 28ZM85.4187 27.3231C83.6905 27.3231 82.548 26.0126 82.548 24.1212C82.548 22.225 83.7097 20.8521 85.4667 20.8521C87.0797 20.8521 88.3518 22.0042 88.3518 24.0444C88.3518 26.0558 87.1085 27.3231 85.4187 27.3231ZM98.1867 27.4623C97.8027 27.2847 97.697 26.8719 97.697 26.0558V22.6187C97.697 20.8905 96.5641 20.0168 94.5623 20.0168C93.5782 20.0168 92.5221 20.228 91.7253 20.7081L92.0325 21.3945C92.7718 21.0345 93.5878 20.8329 94.4711 20.8329C95.8777 20.8329 96.7994 21.3321 96.7994 22.8923V23.694C96.0265 23.5356 95.244 23.4203 94.4471 23.4203C92.0853 23.4203 91.0004 24.4572 91.0004 25.9022C91.0004 27.4191 92.2005 28.1584 93.6982 28.1584C95.1816 28.1584 96.3913 27.4191 96.8234 26.6751L96.833 26.6799C96.833 27.7312 97.4042 28.1584 98.0715 28.1584L98.1867 27.4623ZM96.7994 24.462V25.1533C96.7994 26.4302 95.2152 27.3519 93.7895 27.3519C92.8918 27.3519 91.9029 26.9871 91.9029 25.8734C91.9029 24.8557 92.7238 24.2028 94.5719 24.2028C95.436 24.2028 96.2521 24.3468 96.7994 24.462ZM105.348 20.1752H104.551V31.4467L105.458 31.2547V26.6607H105.468C106.111 27.6256 107.148 28.1584 108.329 28.1584C110.211 28.1584 112.136 26.8239 112.136 24.0348C112.136 21.2265 110.187 20.0168 108.372 20.0168C107.143 20.0168 106.169 20.5689 105.463 21.5626L105.348 20.1752ZM111.219 24.054C111.219 25.9502 110.057 27.3231 108.3 27.3231C106.687 27.3231 105.415 26.171 105.415 24.1308C105.415 22.1194 106.658 20.8521 108.348 20.8521C110.076 20.8521 111.219 22.1626 111.219 24.054ZM114.093 28H115V23.838C115 22.2778 115.874 20.8665 117.444 20.8665C117.703 20.8665 117.948 20.9049 118.178 20.9721L118.318 20.1224C118.053 20.0504 117.761 20.0168 117.477 20.0168C116.359 20.0168 115.586 20.5401 115.02 21.4857H115.01L114.895 20.1752H114.093V28ZM122.555 28.1584C124.821 28.1584 126.588 26.4782 126.588 24.0588C126.588 21.6586 124.845 20.0168 122.589 20.0168C120.318 20.0168 118.576 21.6826 118.576 24.0972C118.576 26.4926 120.299 28.1584 122.555 28.1584ZM122.56 27.3231C120.798 27.3231 119.493 25.9886 119.493 24.0876C119.493 22.1722 120.822 20.8521 122.589 20.8521C124.36 20.8521 125.666 22.1722 125.666 24.0684C125.666 25.979 124.327 27.3231 122.56 27.3231ZM128.976 18.3174C129.369 18.3174 129.681 18.0006 129.681 17.6118C129.681 17.2229 129.369 16.9061 128.976 16.9061C128.587 16.9061 128.275 17.2229 128.275 17.6118C128.275 18.0006 128.587 18.3174 128.976 18.3174ZM128.525 28H129.432V20.1752H128.525V28ZM138.837 28V23.2715C138.837 21.2745 137.709 20.0168 135.732 20.0168C134.493 20.0168 133.514 20.5113 132.818 21.4857L132.702 20.1752H131.906V28H132.818V23.55C132.818 21.9946 133.999 20.8569 135.631 20.8569C137.186 20.8569 137.93 21.8938 137.93 23.502V28H138.837ZM145.532 26.5599C145.532 27.6688 146.108 28.1584 146.818 28.1584L146.934 27.4335C146.54 27.2511 146.439 26.8047 146.439 25.9886V16.3588L145.532 16.5509V26.5599ZM149.476 18.3174C149.869 18.3174 150.181 18.0006 150.181 17.6118C150.181 17.2229 149.869 16.9061 149.476 16.9061C149.087 16.9061 148.775 17.2229 148.775 17.6118C148.775 18.0006 149.087 18.3174 149.476 18.3174ZM149.025 28H149.932V20.1752H149.025V28ZM153.212 28L153.327 26.6127C154.033 27.6064 155.007 28.1584 156.236 28.1584C158.051 28.1584 160 26.9487 160 24.1404C160 21.3513 158.075 20.0168 156.193 20.0168C155.012 20.0168 153.975 20.5497 153.332 21.5146H153.322V16.3588L152.415 16.5509V28H153.212ZM156.212 27.3231C154.523 27.3231 153.279 26.0558 153.279 24.0444C153.279 22.0042 154.551 20.8521 156.164 20.8521C157.921 20.8521 159.083 22.225 159.083 24.1212C159.083 26.0126 157.941 27.3231 156.212 27.3231ZM168.246 27.2271L167.799 26.6079C167.075 27.0687 166.326 27.3327 165.442 27.3327C163.604 27.3327 162.466 26.1854 162.356 24.3804H168.908C168.923 24.2892 168.937 24.0876 168.937 23.886C168.937 21.7306 167.502 20.0168 165.284 20.0168C163.143 20.0168 161.429 21.6106 161.429 24.1452C161.429 26.7375 163.22 28.1584 165.399 28.1584C166.47 28.1584 167.487 27.8128 168.246 27.2271ZM162.375 23.6172C162.5 22.057 163.661 20.8425 165.289 20.8425C166.993 20.8425 167.977 22.177 168.02 23.6172H162.375ZM170.734 28H171.641V23.838C171.641 22.2778 172.515 20.8665 174.084 20.8665C174.344 20.8665 174.589 20.9049 174.819 20.9721L174.958 20.1224C174.694 20.0504 174.401 20.0168 174.118 20.0168C173 20.0168 172.227 20.5401 171.66 21.4857H171.651L171.535 20.1752H170.734V28ZM179.196 28.1584C181.462 28.1584 183.228 26.4782 183.228 24.0588C183.228 21.6586 181.486 20.0168 179.23 20.0168C176.959 20.0168 175.216 21.6826 175.216 24.0972C175.216 26.4926 176.94 28.1584 179.196 28.1584ZM179.201 27.3231C177.439 27.3231 176.133 25.9886 176.133 24.0876C176.133 22.1722 177.463 20.8521 179.23 20.8521C181.001 20.8521 182.307 22.1722 182.307 24.0684C182.307 25.979 180.967 27.3231 179.201 27.3231ZM196.416 28V23.2715C196.416 21.2745 195.288 20.0168 193.31 20.0168C192.071 20.0168 191.092 20.5113 190.396 21.4857L190.281 20.1752H189.484V28H190.396V23.55C190.396 21.9946 191.577 20.8569 193.209 20.8569C194.764 20.8569 195.508 21.8938 195.508 23.502V28H196.416ZM205.546 20.1752H204.638V24.6205C204.638 26.1806 203.486 27.3135 201.869 27.3135C200.313 27.3135 199.612 26.267 199.612 24.6733V20.1752H198.705V24.9037C198.705 26.8863 199.804 28.1584 201.777 28.1584C202.987 28.1584 203.942 27.6784 204.634 26.6991L204.749 28H205.546V20.1752ZM214.962 28V23.2715C214.962 21.2745 213.834 20.0168 211.857 20.0168C210.618 20.0168 209.639 20.5113 208.943 21.4857L208.827 20.1752H208.031V28H208.943V23.55C208.943 21.9946 210.124 20.8569 211.756 20.8569C213.311 20.8569 214.055 21.8938 214.055 23.502V28H214.962ZM222.825 26.8047C222.24 27.1215 221.606 27.3231 220.886 27.3231C219.129 27.3231 217.732 26.1182 217.732 24.1164C217.732 22.1434 219.09 20.8521 220.943 20.8521C221.606 20.8521 222.206 21.0201 222.796 21.3081L223.2 20.6313C222.561 20.2424 221.76 20.0168 220.905 20.0168C218.644 20.0168 216.82 21.5914 216.82 24.1404C216.82 26.7855 218.788 28.1584 220.857 28.1584C221.745 28.1584 222.58 27.904 223.291 27.4431L222.825 26.8047ZM234.778 26.8047C234.193 27.1215 233.559 27.3231 232.839 27.3231C231.082 27.3231 229.685 26.1182 229.685 24.1164C229.685 22.1434 231.044 20.8521 232.897 20.8521C233.559 20.8521 234.159 21.0201 234.75 21.3081L235.153 20.6313C234.514 20.2424 233.713 20.0168 232.858 20.0168C230.597 20.0168 228.773 21.5914 228.773 24.1404C228.773 26.7855 230.741 28.1584 232.81 28.1584C233.698 28.1584 234.534 27.904 235.244 27.4431L234.778 26.8047ZM240.102 28.1584C242.368 28.1584 244.135 26.4782 244.135 24.0588C244.135 21.6586 242.392 20.0168 240.136 20.0168C237.865 20.0168 236.123 21.6826 236.123 24.0972C236.123 26.4926 237.846 28.1584 240.102 28.1584ZM240.107 27.3231C238.345 27.3231 237.04 25.9886 237.04 24.0876C237.04 22.1722 238.369 20.8521 240.136 20.8521C241.907 20.8521 243.213 22.1722 243.213 24.0684C243.213 25.979 241.874 27.3231 240.107 27.3231ZM252.994 28V23.2715C252.994 21.2745 251.866 20.0168 249.888 20.0168C248.649 20.0168 247.67 20.5113 246.974 21.4857L246.859 20.1752H246.062V28H246.974V23.55C246.974 21.9946 248.155 20.8569 249.787 20.8569C251.342 20.8569 252.086 21.8938 252.086 23.502V28H252.994ZM255.139 26.6319L254.688 27.2559C255.398 27.76 256.291 28.1584 257.443 28.1584C259.018 28.1584 260.319 27.4191 260.319 25.9118C260.319 23.1467 255.926 24.2172 255.926 22.1482C255.926 21.1641 256.911 20.8281 257.803 20.8281C258.495 20.8281 259.167 21.0345 259.7 21.3369L260.093 20.6889C259.45 20.276 258.629 20.0168 257.736 20.0168C256.296 20.0168 255.019 20.6937 255.019 22.201C255.019 24.9997 259.407 23.934 259.407 25.9742C259.407 27.0399 258.221 27.3375 257.347 27.3375C256.493 27.3375 255.816 27.0543 255.139 26.6319ZM268.496 27.2271L268.049 26.6079C267.325 27.0687 266.576 27.3327 265.692 27.3327C263.854 27.3327 262.716 26.1854 262.606 24.3804H269.158C269.173 24.2892 269.187 24.0876 269.187 23.886C269.187 21.7306 267.752 20.0168 265.534 20.0168C263.393 20.0168 261.679 21.6106 261.679 24.1452C261.679 26.7375 263.47 28.1584 265.649 28.1584C266.72 28.1584 267.737 27.8128 268.496 27.2271ZM262.625 23.6172C262.75 22.057 263.911 20.8425 265.539 20.8425C267.243 20.8425 268.227 22.177 268.27 23.6172H262.625ZM278.064 20.1752H277.268L277.148 21.5626C276.442 20.5689 275.472 20.0168 274.238 20.0168C272.429 20.0168 270.475 21.2265 270.475 24.0348C270.475 26.8239 272.4 28.1584 274.282 28.1584C275.467 28.1584 276.504 27.6256 277.148 26.6607H277.157V31.4467L278.064 31.2547V20.1752ZM274.315 27.3231C272.558 27.3231 271.397 25.9502 271.397 24.054C271.397 22.1626 272.539 20.8521 274.267 20.8521C275.957 20.8521 277.2 22.1194 277.2 24.1308C277.2 26.171 275.928 27.3231 274.315 27.3231ZM287.28 20.1752H286.373V24.6205C286.373 26.1806 285.221 27.3135 283.603 27.3135C282.048 27.3135 281.347 26.267 281.347 24.6733V20.1752H280.439V24.9037C280.439 26.8863 281.539 28.1584 283.512 28.1584C284.721 28.1584 285.677 27.6784 286.368 26.6991L286.483 28H287.28V20.1752ZM296.265 27.4623C295.881 27.2847 295.775 26.8719 295.775 26.0558V22.6187C295.775 20.8905 294.642 20.0168 292.64 20.0168C291.656 20.0168 290.6 20.228 289.803 20.7081L290.111 21.3945C290.85 21.0345 291.666 20.8329 292.549 20.8329C293.956 20.8329 294.877 21.3321 294.877 22.8923V23.694C294.105 23.5356 293.322 23.4203 292.525 23.4203C290.163 23.4203 289.079 24.4572 289.079 25.9022C289.079 27.4191 290.279 28.1584 291.776 28.1584C293.26 28.1584 294.469 27.4191 294.901 26.6751L294.911 26.6799C294.911 27.7312 295.482 28.1584 296.15 28.1584L296.265 27.4623ZM294.877 24.462V25.1533C294.877 26.4302 293.293 27.3519 291.868 27.3519C290.97 27.3519 289.981 26.9871 289.981 25.8734C289.981 24.8557 290.802 24.2028 292.65 24.2028C293.514 24.2028 294.33 24.3468 294.877 24.462ZM297.169 20.9769H298.667V25.6286C298.667 27.3327 299.949 28.072 301.288 28.1584L301.403 27.3855C300.241 27.1167 299.574 26.7663 299.574 25.0669V20.9769H301.706V20.1752H299.574V17.4341L298.667 17.6262V20.1752H297.169V20.9769ZM307.913 18.3174C308.307 18.3174 308.619 18.0006 308.619 17.6118C308.619 17.2229 308.307 16.9061 307.913 16.9061C307.524 16.9061 307.212 17.2229 307.212 17.6118C307.212 18.0006 307.524 18.3174 307.913 18.3174ZM307.462 28H308.369V20.1752H307.462V28ZM317.775 28V23.2715C317.775 21.2745 316.647 20.0168 314.669 20.0168C313.431 20.0168 312.451 20.5113 311.755 21.4857L311.64 20.1752H310.843V28H311.755V23.55C311.755 21.9946 312.936 20.8569 314.568 20.8569C316.124 20.8569 316.868 21.8938 316.868 23.502V28H317.775ZM319.044 20.9769H320.542V25.6286C320.542 27.3327 321.824 28.072 323.163 28.1584L323.278 27.3855C322.116 27.1167 321.449 26.7663 321.449 25.0669V20.9769H323.581V20.1752H321.449V17.4341L320.542 17.6262V20.1752H319.044V20.9769ZM331.215 27.2271L330.768 26.6079C330.043 27.0687 329.294 27.3327 328.411 27.3327C326.573 27.3327 325.435 26.1854 325.324 24.3804H331.877C331.892 24.2892 331.906 24.0876 331.906 23.886C331.906 21.7306 330.471 20.0168 328.253 20.0168C326.112 20.0168 324.398 21.6106 324.398 24.1452C324.398 26.7375 326.189 28.1584 328.368 28.1584C329.438 28.1584 330.456 27.8128 331.215 27.2271ZM325.344 23.6172C325.468 22.057 326.63 20.8425 328.258 20.8425C329.962 20.8425 330.946 22.177 330.989 23.6172H325.344ZM333.702 28H334.61V23.838C334.61 22.2778 335.483 20.8665 337.053 20.8665C337.312 20.8665 337.557 20.9049 337.788 20.9721L337.927 20.1224C337.663 20.0504 337.37 20.0168 337.087 20.0168C335.968 20.0168 335.195 20.5401 334.629 21.4857H334.619L334.504 20.1752H333.702V28ZM345.044 28H345.841V16.3588L344.934 16.5509V21.5146H344.924C344.281 20.5497 343.244 20.0168 342.058 20.0168C340.176 20.0168 338.251 21.3513 338.251 24.1404C338.251 26.9487 340.205 28.1584 342.015 28.1584C343.249 28.1584 344.218 27.6064 344.924 26.6127L345.044 28ZM342.044 27.3231C340.316 27.3231 339.173 26.0126 339.173 24.1212C339.173 22.225 340.335 20.8521 342.092 20.8521C343.705 20.8521 344.977 22.0042 344.977 24.0444C344.977 26.0558 343.733 27.3231 342.044 27.3231ZM355.061 20.1752H354.154V24.6205C354.154 26.1806 353.002 27.3135 351.384 27.3135C349.829 27.3135 349.128 26.267 349.128 24.6733V20.1752H348.221V24.9037C348.221 26.8863 349.32 28.1584 351.293 28.1584C352.503 28.1584 353.458 27.6784 354.149 26.6991L354.264 28H355.061V20.1752ZM358.454 28V23.6028C358.454 22.129 359.394 20.8569 360.916 20.8569C362.361 20.8569 362.899 22.009 362.899 23.502V28H363.806V23.6028C363.806 22.1002 364.757 20.8521 366.278 20.8569C367.738 20.8569 368.251 22.0234 368.251 23.502V28H369.159V23.2715C369.159 21.4137 368.256 20.0168 366.413 20.0168C365.141 20.0168 364.142 20.6841 363.561 21.769C363.168 20.6457 362.212 20.0168 361.007 20.0168C359.908 20.0168 359.058 20.5401 358.458 21.4713L358.343 20.1752H357.546V28H358.454ZM22.4545 49.1752H21.4656L24.562 57H25.5413L28.7624 49.1752H27.8215L25.0804 55.9535L22.4545 49.1752ZM36.5929 56.4623C36.2089 56.2847 36.1033 55.8719 36.1033 55.0558V51.6187C36.1033 49.8905 34.9704 49.0168 32.9686 49.0168C31.9845 49.0168 30.9284 49.228 30.1315 49.7081L30.4387 50.3945C31.178 50.0345 31.9941 49.8329 32.8774 49.8329C34.2839 49.8329 35.2056 50.3321 35.2056 51.8923V52.694C34.4327 52.5356 33.6503 52.4203 32.8534 52.4203C30.4915 52.4203 29.4066 53.4572 29.4066 54.9022C29.4066 56.4191 30.6067 57.1584 32.1045 57.1584C33.5878 57.1584 34.7976 56.4191 35.2296 55.6751L35.2392 55.6799C35.2392 56.7312 35.8105 57.1584 36.4777 57.1584L36.5929 56.4623ZM35.2056 53.462V54.1533C35.2056 55.4302 33.6215 56.3519 32.1957 56.3519C31.298 56.3519 30.3091 55.9871 30.3091 54.8734C30.3091 53.8557 31.13 53.2028 32.9782 53.2028C33.8423 53.2028 34.6584 53.3468 35.2056 53.462ZM38.6243 57H39.5316V52.838C39.5316 51.2778 40.4053 49.8665 41.9751 49.8665C42.2343 49.8665 42.4791 49.9049 42.7096 49.9721L42.8488 49.1224C42.5847 49.0504 42.2919 49.0168 42.0087 49.0168C40.8902 49.0168 40.1173 49.5401 39.5508 50.4857H39.5412L39.426 49.1752H38.6243V57ZM44.6008 47.3174C44.9945 47.3174 45.3065 47.0006 45.3065 46.6118C45.3065 46.2229 44.9945 45.9061 44.6008 45.9061C44.212 45.9061 43.8999 46.2229 43.8999 46.6118C43.8999 47.0006 44.212 47.3174 44.6008 47.3174ZM44.1496 57H45.0569V49.1752H44.1496V57ZM54.2801 49.1752H53.3728V53.6205C53.3728 55.1806 52.2207 56.3135 50.6029 56.3135C49.0475 56.3135 48.3467 55.267 48.3467 53.6733V49.1752H47.4394V53.9037C47.4394 55.8863 48.5387 57.1584 50.5117 57.1584C51.7214 57.1584 52.6767 56.6784 53.368 55.6991L53.4832 57H54.2801V49.1752ZM56.5297 55.6319L56.0785 56.2559C56.789 56.76 57.6819 57.1584 58.834 57.1584C60.4085 57.1584 61.7095 56.4191 61.7095 54.9118C61.7095 52.1467 57.317 53.2172 57.317 51.1482C57.317 50.1641 58.3011 49.8281 59.194 49.8281C59.8853 49.8281 60.5574 50.0345 61.0902 50.3369L61.4838 49.6889C60.8406 49.276 60.0197 49.0168 59.1268 49.0168C57.6867 49.0168 56.4097 49.6937 56.4097 51.201C56.4097 53.9997 60.7974 52.934 60.7974 54.9742C60.7974 56.0399 59.6117 56.3375 58.738 56.3375C57.8835 56.3375 57.2066 56.0543 56.5297 55.6319ZM67.686 55.6319L67.2348 56.2559C67.9452 56.76 68.8381 57.1584 69.9902 57.1584C71.5648 57.1584 72.8657 56.4191 72.8657 54.9118C72.8657 52.1467 68.4733 53.2172 68.4733 51.1482C68.4733 50.1641 69.4574 49.8281 70.3503 49.8281C71.0415 49.8281 71.7136 50.0345 72.2465 50.3369L72.6401 49.6889C71.9968 49.276 71.1759 49.0168 70.2831 49.0168C68.8429 49.0168 67.566 49.6937 67.566 51.201C67.566 53.9997 71.9536 52.934 71.9536 54.9742C71.9536 56.0399 70.7679 56.3375 69.8942 56.3375C69.0397 56.3375 68.3629 56.0543 67.686 55.6319ZM75.2102 47.3174C75.6038 47.3174 75.9159 47.0006 75.9159 46.6118C75.9159 46.2229 75.6038 45.9061 75.2102 45.9061C74.8214 45.9061 74.5093 46.2229 74.5093 46.6118C74.5093 47.0006 74.8214 47.3174 75.2102 47.3174ZM74.7589 57H75.6662V49.1752H74.7589V57ZM77.1223 49.9769H78.62V54.6286C78.62 56.3327 79.9017 57.072 81.2411 57.1584L81.3563 56.3855C80.1946 56.1167 79.5273 55.7663 79.5273 54.0669V49.9769H81.6587V49.1752H79.5273V46.4341L78.62 46.6262V49.1752H77.1223V49.9769ZM93.9054 56.4623C93.5214 56.2847 93.4158 55.8719 93.4158 55.0558V51.6187C93.4158 49.8905 92.2829 49.0168 90.2811 49.0168C89.297 49.0168 88.2409 49.228 87.444 49.7081L87.7512 50.3945C88.4905 50.0345 89.3066 49.8329 90.1899 49.8329C91.5964 49.8329 92.5181 50.3321 92.5181 51.8923V52.694C91.7452 52.5356 90.9628 52.4203 90.1659 52.4203C87.804 52.4203 86.7191 53.4572 86.7191 54.9022C86.7191 56.4191 87.9192 57.1584 89.417 57.1584C90.9003 57.1584 92.1101 56.4191 92.5421 55.6751L92.5517 55.6799C92.5517 56.7312 93.123 57.1584 93.7902 57.1584L93.9054 56.4623ZM92.5181 53.462V54.1533C92.5181 55.4302 90.934 56.3519 89.5082 56.3519C88.6105 56.3519 87.6216 55.9871 87.6216 54.8734C87.6216 53.8557 88.4425 53.2028 90.2907 53.2028C91.1548 53.2028 91.9709 53.3468 92.5181 53.462ZM96.8441 57V52.6028C96.8441 51.129 97.785 49.8569 99.3068 49.8569C100.752 49.8569 101.289 51.009 101.289 52.502V57H102.197V52.6028C102.197 51.1002 103.147 49.8521 104.669 49.8569C106.128 49.8569 106.642 51.0234 106.642 52.502V57H107.549V52.2715C107.549 50.4137 106.647 49.0168 104.803 49.0168C103.531 49.0168 102.533 49.6841 101.952 50.769C101.558 49.6457 100.603 49.0168 99.398 49.0168C98.2987 49.0168 97.449 49.5401 96.8489 50.4713L96.7337 49.1752H95.9368V57H96.8441ZM116.215 56.2271L115.768 55.6079C115.043 56.0687 114.294 56.3327 113.411 56.3327C111.573 56.3327 110.435 55.1854 110.324 53.3804H116.877C116.892 53.2892 116.906 53.0876 116.906 52.886C116.906 50.7306 115.471 49.0168 113.253 49.0168C111.112 49.0168 109.398 50.6106 109.398 53.1452C109.398 55.7375 111.189 57.1584 113.368 57.1584C114.438 57.1584 115.456 56.8128 116.215 56.2271ZM110.344 52.6172C110.468 51.057 111.63 49.8425 113.258 49.8425C114.962 49.8425 115.946 51.177 115.989 52.6172H110.344ZM117.685 49.9769H119.183V54.6286C119.183 56.3327 120.464 57.072 121.804 57.1584L121.919 56.3855C120.757 56.1167 120.09 55.7663 120.09 54.0669V49.9769H122.221V49.1752H120.09V46.4341L119.183 46.6262V49.1752H117.685V49.9769ZM124.173 57.1584C124.576 57.1584 124.902 56.832 124.902 56.4335C124.902 56.0303 124.576 55.7039 124.173 55.7039C123.77 55.7039 123.448 56.0303 123.448 56.4335C123.448 56.832 123.77 57.1584 124.173 57.1584ZM131.219 45.8725H130.22L134.061 57H135.107L138.948 45.8725H137.997L134.603 55.8047L131.219 45.8725ZM141.116 47.3174C141.51 47.3174 141.822 47.0006 141.822 46.6118C141.822 46.2229 141.51 45.9061 141.116 45.9061C140.728 45.9061 140.416 46.2229 140.416 46.6118C140.416 47.0006 140.728 47.3174 141.116 47.3174ZM140.665 57H141.572V49.1752H140.665V57ZM143.029 49.9769H144.526V54.6286C144.526 56.3327 145.808 57.072 147.147 57.1584L147.263 56.3855C146.101 56.1167 145.434 55.7663 145.434 54.0669V49.9769H147.565V49.1752H145.434V46.4341L144.526 46.6262V49.1752H143.029V49.9769ZM155.484 56.4623C155.1 56.2847 154.994 55.8719 154.994 55.0558V51.6187C154.994 49.8905 153.861 49.0168 151.859 49.0168C150.875 49.0168 149.819 49.228 149.022 49.7081L149.329 50.3945C150.069 50.0345 150.885 49.8329 151.768 49.8329C153.175 49.8329 154.096 50.3321 154.096 51.8923V52.694C153.323 52.5356 152.541 52.4203 151.744 52.4203C149.382 52.4203 148.297 53.4572 148.297 54.9022C148.297 56.4191 149.497 57.1584 150.995 57.1584C152.478 57.1584 153.688 56.4191 154.12 55.6751L154.13 55.6799C154.13 56.7312 154.701 57.1584 155.368 57.1584L155.484 56.4623ZM154.096 53.462V54.1533C154.096 55.4302 152.512 56.3519 151.086 56.3519C150.189 56.3519 149.2 55.9871 149.2 54.8734C149.2 53.8557 150.021 53.2028 151.869 53.2028C152.733 53.2028 153.549 53.3468 154.096 53.462ZM163.808 56.2271L163.362 55.6079C162.637 56.0687 161.888 56.3327 161.005 56.3327C159.166 56.3327 158.029 55.1854 157.918 53.3804H164.471C164.485 53.2892 164.5 53.0876 164.5 52.886C164.5 50.7306 163.064 49.0168 160.847 49.0168C158.705 49.0168 156.992 50.6106 156.992 53.1452C156.992 55.7375 158.782 57.1584 160.962 57.1584C162.032 57.1584 163.05 56.8128 163.808 56.2271ZM157.937 52.6172C158.062 51.057 159.224 49.8425 160.851 49.8425C162.555 49.8425 163.54 51.177 163.583 52.6172H157.937ZM170.389 55.6319L169.938 56.2559C170.648 56.76 171.541 57.1584 172.693 57.1584C174.268 57.1584 175.569 56.4191 175.569 54.9118C175.569 52.1467 171.176 53.2172 171.176 51.1482C171.176 50.1641 172.161 49.8281 173.053 49.8281C173.745 49.8281 174.417 50.0345 174.95 50.3369L175.343 49.6889C174.7 49.276 173.879 49.0168 172.986 49.0168C171.546 49.0168 170.269 49.6937 170.269 51.201C170.269 53.9997 174.657 52.934 174.657 54.9742C174.657 56.0399 173.471 56.3375 172.597 56.3375C171.743 56.3375 171.066 56.0543 170.389 55.6319ZM183.952 56.4623C183.568 56.2847 183.463 55.8719 183.463 55.0558V51.6187C183.463 49.8905 182.33 49.0168 180.328 49.0168C179.344 49.0168 178.288 49.228 177.491 49.7081L177.798 50.3945C178.537 50.0345 179.353 49.8329 180.237 49.8329C181.643 49.8329 182.565 50.3321 182.565 51.8923V52.694C181.792 52.5356 181.01 52.4203 180.213 52.4203C177.851 52.4203 176.766 53.4572 176.766 54.9022C176.766 56.4191 177.966 57.1584 179.464 57.1584C180.947 57.1584 182.157 56.4191 182.589 55.6751L182.599 55.6799C182.599 56.7312 183.17 57.1584 183.837 57.1584L183.952 56.4623ZM182.565 53.462V54.1533C182.565 55.4302 180.981 56.3519 179.555 56.3519C178.657 56.3519 177.668 55.9871 177.668 54.8734C177.668 53.8557 178.489 53.2028 180.338 53.2028C181.202 53.2028 182.018 53.3468 182.565 53.462ZM186.785 49.1752H185.989V60.4467L186.896 60.2547V55.6607H186.905C187.549 56.6256 188.586 57.1584 189.767 57.1584C191.648 57.1584 193.573 55.8239 193.573 53.0348C193.573 50.2265 191.624 49.0168 189.81 49.0168C188.581 49.0168 187.606 49.5689 186.901 50.5626L186.785 49.1752ZM192.656 53.054C192.656 54.9502 191.495 56.3231 189.738 56.3231C188.125 56.3231 186.853 55.171 186.853 53.1308C186.853 51.1194 188.096 49.8521 189.786 49.8521C191.514 49.8521 192.656 51.1626 192.656 53.054ZM195.991 47.3174C196.385 47.3174 196.697 47.0006 196.697 46.6118C196.697 46.2229 196.385 45.9061 195.991 45.9061C195.603 45.9061 195.291 46.2229 195.291 46.6118C195.291 47.0006 195.603 47.3174 195.991 47.3174ZM195.54 57H196.447V49.1752H195.54V57ZM205.215 56.2271L204.768 55.6079C204.043 56.0687 203.294 56.3327 202.411 56.3327C200.573 56.3327 199.435 55.1854 199.324 53.3804H205.877C205.892 53.2892 205.906 53.0876 205.906 52.886C205.906 50.7306 204.471 49.0168 202.253 49.0168C200.112 49.0168 198.398 50.6106 198.398 53.1452C198.398 55.7375 200.189 57.1584 202.368 57.1584C203.438 57.1584 204.456 56.8128 205.215 56.2271ZM199.344 52.6172C199.468 51.057 200.63 49.8425 202.258 49.8425C203.962 49.8425 204.946 51.177 204.989 52.6172H199.344ZM214.634 57V52.2715C214.634 50.2745 213.506 49.0168 211.528 49.0168C210.29 49.0168 209.311 49.5113 208.615 50.4857L208.499 49.1752H207.702V57H208.615V52.55C208.615 50.9946 209.795 49.8569 211.428 49.8569C212.983 49.8569 213.727 50.8938 213.727 52.502V57H214.634ZM222.145 49.1752H221.348V60.4467L222.255 60.2547V55.6607H222.265C222.908 56.6256 223.945 57.1584 225.126 57.1584C227.008 57.1584 228.933 55.8239 228.933 53.0348C228.933 50.2265 226.984 49.0168 225.169 49.0168C223.94 49.0168 222.966 49.5689 222.26 50.5626L222.145 49.1752ZM228.016 53.054C228.016 54.9502 226.854 56.3231 225.097 56.3231C223.484 56.3231 222.212 55.171 222.212 53.1308C222.212 51.1194 223.455 49.8521 225.145 49.8521C226.873 49.8521 228.016 51.1626 228.016 53.054ZM237.183 56.2271L236.737 55.6079C236.012 56.0687 235.263 56.3327 234.38 56.3327C232.541 56.3327 231.404 55.1854 231.293 53.3804H237.846C237.86 53.2892 237.875 53.0876 237.875 52.886C237.875 50.7306 236.439 49.0168 234.222 49.0168C232.08 49.0168 230.367 50.6106 230.367 53.1452C230.367 55.7375 232.157 57.1584 234.337 57.1584C235.407 57.1584 236.425 56.8128 237.183 56.2271ZM231.312 52.6172C231.437 51.057 232.599 49.8425 234.226 49.8425C235.93 49.8425 236.915 51.177 236.958 52.6172H231.312ZM239.657 55.5599C239.657 56.6688 240.233 57.1584 240.943 57.1584L241.059 56.4335C240.665 56.2511 240.564 55.8047 240.564 54.9886V45.3588L239.657 45.5509V55.5599ZM243.126 55.5599C243.126 56.6688 243.702 57.1584 244.412 57.1584L244.527 56.4335C244.134 56.2511 244.033 55.8047 244.033 54.9886V45.3588L243.126 45.5509V55.5599ZM252.902 56.2271L252.456 55.6079C251.731 56.0687 250.982 56.3327 250.099 56.3327C248.26 56.3327 247.122 55.1854 247.012 53.3804H253.565C253.579 53.2892 253.593 53.0876 253.593 52.886C253.593 50.7306 252.158 49.0168 249.94 49.0168C247.799 49.0168 246.085 50.6106 246.085 53.1452C246.085 55.7375 247.876 57.1584 250.055 57.1584C251.126 57.1584 252.144 56.8128 252.902 56.2271ZM247.031 52.6172C247.156 51.057 248.318 49.8425 249.945 49.8425C251.649 49.8425 252.633 51.177 252.677 52.6172H247.031ZM262.322 57V52.2715C262.322 50.2745 261.194 49.0168 259.216 49.0168C257.977 49.0168 256.998 49.5113 256.302 50.4857L256.187 49.1752H255.39V57H256.302V52.55C256.302 50.9946 257.483 49.8569 259.115 49.8569C260.671 49.8569 261.415 50.8938 261.415 52.502V57H262.322ZM263.591 49.9769H265.089V54.6286C265.089 56.3327 266.37 57.072 267.71 57.1584L267.825 56.3855C266.663 56.1167 265.996 55.7663 265.996 54.0669V49.9769H268.127V49.1752H265.996V46.4341L265.089 46.6262V49.1752H263.591V49.9769ZM275.762 56.2271L275.315 55.6079C274.59 56.0687 273.841 56.3327 272.958 56.3327C271.119 56.3327 269.982 55.1854 269.871 53.3804H276.424C276.438 53.2892 276.453 53.0876 276.453 52.886C276.453 50.7306 275.017 49.0168 272.8 49.0168C270.659 49.0168 268.945 50.6106 268.945 53.1452C268.945 55.7375 270.735 57.1584 272.915 57.1584C273.985 57.1584 275.003 56.8128 275.762 56.2271ZM269.891 52.6172C270.015 51.057 271.177 49.8425 272.804 49.8425C274.509 49.8425 275.493 51.177 275.536 52.6172H269.891ZM278.014 55.6319L277.563 56.2559C278.273 56.76 279.166 57.1584 280.318 57.1584C281.893 57.1584 283.194 56.4191 283.194 54.9118C283.194 52.1467 278.801 53.2172 278.801 51.1482C278.801 50.1641 279.786 49.8281 280.678 49.8281C281.37 49.8281 282.042 50.0345 282.575 50.3369L282.968 49.6889C282.325 49.276 281.504 49.0168 280.611 49.0168C279.171 49.0168 277.894 49.6937 277.894 51.201C277.894 53.9997 282.282 52.934 282.282 54.9742C282.282 56.0399 281.096 56.3375 280.222 56.3375C279.368 56.3375 278.691 56.0543 278.014 55.6319ZM292.158 49.1752H291.361L291.241 50.5626C290.536 49.5689 289.566 49.0168 288.332 49.0168C286.522 49.0168 284.569 50.2265 284.569 53.0348C284.569 55.8239 286.494 57.1584 288.375 57.1584C289.561 57.1584 290.598 56.6256 291.241 55.6607H291.251V60.4467L292.158 60.2547V49.1752ZM288.409 56.3231C286.652 56.3231 285.49 54.9502 285.49 53.054C285.49 51.1626 286.633 49.8521 288.361 49.8521C290.051 49.8521 291.294 51.1194 291.294 53.1308C291.294 55.171 290.022 56.3231 288.409 56.3231ZM301.374 49.1752H300.467V53.6205C300.467 55.1806 299.314 56.3135 297.697 56.3135C296.141 56.3135 295.44 55.267 295.44 53.6733V49.1752H294.533V53.9037C294.533 55.8863 295.632 57.1584 297.605 57.1584C298.815 57.1584 299.77 56.6784 300.462 55.6991L300.577 57H301.374V49.1752ZM310.152 56.2271L309.706 55.6079C308.981 56.0687 308.232 56.3327 307.349 56.3327C305.51 56.3327 304.372 55.1854 304.262 53.3804H310.815C310.829 53.2892 310.843 53.0876 310.843 52.886C310.843 50.7306 309.408 49.0168 307.19 49.0168C305.049 49.0168 303.335 50.6106 303.335 53.1452C303.335 55.7375 305.126 57.1584 307.305 57.1584C308.376 57.1584 309.394 56.8128 310.152 56.2271ZM304.281 52.6172C304.406 51.057 305.568 49.8425 307.195 49.8425C308.899 49.8425 309.883 51.177 309.927 52.6172H304.281ZM324.001 57V52.2715C324.001 50.2553 322.839 49.0168 320.842 49.0168C319.594 49.0168 318.581 49.4969 317.89 50.4857H317.88V45.3588L316.973 45.5509V57H317.88V52.5068C317.88 50.9466 319.138 49.8569 320.756 49.8569C322.349 49.8569 323.094 50.913 323.094 52.5596V57H324.001ZM332.874 56.4623C332.49 56.2847 332.385 55.8719 332.385 55.0558V51.6187C332.385 49.8905 331.252 49.0168 329.25 49.0168C328.266 49.0168 327.21 49.228 326.413 49.7081L326.72 50.3945C327.459 50.0345 328.275 49.8329 329.159 49.8329C330.565 49.8329 331.487 50.3321 331.487 51.8923V52.694C330.714 52.5356 329.932 52.4203 329.135 52.4203C326.773 52.4203 325.688 53.4572 325.688 54.9022C325.688 56.4191 326.888 57.1584 328.386 57.1584C329.869 57.1584 331.079 56.4191 331.511 55.6751L331.52 55.6799C331.52 56.7312 332.092 57.1584 332.759 57.1584L332.874 56.4623ZM331.487 53.462V54.1533C331.487 55.4302 329.903 56.3519 328.477 56.3519C327.579 56.3519 326.59 55.9871 326.59 54.8734C326.59 53.8557 327.411 53.2028 329.259 53.2028C330.124 53.2028 330.94 53.3468 331.487 53.462ZM335.712 57L335.827 55.6127C336.533 56.6064 337.507 57.1584 338.736 57.1584C340.551 57.1584 342.5 55.9487 342.5 53.1404C342.5 50.3513 340.575 49.0168 338.693 49.0168C337.512 49.0168 336.475 49.5497 335.832 50.5146H335.822V45.3588L334.915 45.5509V57H335.712ZM338.712 56.3231C337.023 56.3231 335.779 55.0558 335.779 53.0444C335.779 51.0042 337.051 49.8521 338.664 49.8521C340.421 49.8521 341.583 51.225 341.583 53.1212C341.583 55.0126 340.441 56.3231 338.712 56.3231ZM344.913 47.3174C345.307 47.3174 345.619 47.0006 345.619 46.6118C345.619 46.2229 345.307 45.9061 344.913 45.9061C344.524 45.9061 344.212 46.2229 344.212 46.6118C344.212 47.0006 344.524 47.3174 344.913 47.3174ZM344.462 57H345.369V49.1752H344.462V57ZM346.825 49.9769H348.323V54.6286C348.323 56.3327 349.605 57.072 350.944 57.1584L351.059 56.3855C349.898 56.1167 349.23 55.7663 349.23 54.0669V49.9769H351.362V49.1752H349.23V46.4341L348.323 46.6262V49.1752H346.825V49.9769ZM359.28 56.4623C358.896 56.2847 358.791 55.8719 358.791 55.0558V51.6187C358.791 49.8905 357.658 49.0168 355.656 49.0168C354.672 49.0168 353.616 49.228 352.819 49.7081L353.126 50.3945C353.866 50.0345 354.682 49.8329 355.565 49.8329C356.971 49.8329 357.893 50.3321 357.893 51.8923V52.694C357.12 52.5356 356.338 52.4203 355.541 52.4203C353.179 52.4203 352.094 53.4572 352.094 54.9022C352.094 56.4191 353.294 57.1584 354.792 57.1584C356.275 57.1584 357.485 56.4191 357.917 55.6751L357.927 55.6799C357.927 56.7312 358.498 57.1584 359.165 57.1584L359.28 56.4623ZM357.893 53.462V54.1533C357.893 55.4302 356.309 56.3519 354.883 56.3519C353.986 56.3519 352.997 55.9871 352.997 54.8734C352.997 53.8557 353.818 53.2028 355.666 53.2028C356.53 53.2028 357.346 53.3468 357.893 53.462ZM368.244 57V52.2715C368.244 50.2745 367.116 49.0168 365.138 49.0168C363.899 49.0168 362.92 49.5113 362.224 50.4857L362.109 49.1752H361.312V57H362.224V52.55C362.224 50.9946 363.405 49.8569 365.037 49.8569C366.592 49.8569 367.336 50.8938 367.336 52.502V57H368.244ZM369.513 49.9769H371.011V54.6286C371.011 56.3327 372.292 57.072 373.632 57.1584L373.747 56.3855C372.585 56.1167 371.918 55.7663 371.918 54.0669V49.9769H374.049V49.1752H371.918V46.4341L371.011 46.6262V49.1752H369.513V49.9769ZM23.141 86V81.6028C23.141 80.129 24.0819 78.8569 25.6037 78.8569C27.0486 78.8569 27.5863 80.009 27.5863 81.502V86H28.4935V81.6028C28.4935 80.1002 29.444 78.8521 30.9658 78.8569C32.4251 78.8569 32.9388 80.0234 32.9388 81.502V86H33.8461V81.2715C33.8461 79.4137 32.9436 78.0168 31.1002 78.0168C29.8281 78.0168 28.8296 78.6841 28.2487 79.769C27.8551 78.6457 26.8998 78.0168 25.6949 78.0168C24.5956 78.0168 23.7459 78.5401 23.1458 79.4713L23.0306 78.1752H22.2337V86H23.141ZM39.6648 86.1584C41.9307 86.1584 43.6972 84.4782 43.6972 82.0588C43.6972 79.6586 41.9547 78.0168 39.6984 78.0168C37.4278 78.0168 35.6852 79.6826 35.6852 82.0972C35.6852 84.4926 37.4086 86.1584 39.6648 86.1584ZM39.6696 85.3231C37.9079 85.3231 36.6021 83.9886 36.6021 82.0876C36.6021 80.1722 37.9319 78.8521 39.6984 78.8521C41.4698 78.8521 42.7756 80.1722 42.7756 82.0684C42.7756 83.979 41.4362 85.3231 39.6696 85.3231ZM45.6243 86H46.5316V81.838C46.5316 80.2778 47.4053 78.8665 48.9751 78.8665C49.2343 78.8665 49.4791 78.9049 49.7096 78.9721L49.8488 78.1224C49.5847 78.0504 49.2919 78.0168 49.0087 78.0168C47.8902 78.0168 47.1173 78.5401 46.5508 79.4857H46.5412L46.426 78.1752H45.6243V86ZM51.9465 86L52.0617 84.6127C52.7673 85.6064 53.7418 86.1584 54.9708 86.1584C56.7853 86.1584 58.7343 84.9487 58.7343 82.1404C58.7343 79.3513 56.8093 78.0168 54.9276 78.0168C53.7466 78.0168 52.7097 78.5497 52.0665 79.5146H52.0569V74.3588L51.1496 74.5509V86H51.9465ZM54.9468 85.3231C53.257 85.3231 52.0137 84.0558 52.0137 82.0444C52.0137 80.0042 53.2858 78.8521 54.8987 78.8521C56.6557 78.8521 57.8174 80.225 57.8174 82.1212C57.8174 84.0126 56.6749 85.3231 54.9468 85.3231ZM61.1477 76.3174C61.5413 76.3174 61.8534 76.0006 61.8534 75.6118C61.8534 75.2229 61.5413 74.9061 61.1477 74.9061C60.7589 74.9061 60.4468 75.2229 60.4468 75.6118C60.4468 76.0006 60.7589 76.3174 61.1477 76.3174ZM60.6964 86H61.6037V78.1752H60.6964V86ZM67.0441 78.9769H68.5419V83.6286C68.5419 85.3327 69.8236 86.072 71.163 86.1584L71.2782 85.3855C70.1165 85.1167 69.4492 84.7663 69.4492 83.0669V78.9769H71.5806V78.1752H69.4492V75.4341L68.5419 75.6262V78.1752H67.0441V78.9769ZM72.9993 86H73.9066V81.838C73.9066 80.2778 74.7803 78.8665 76.3501 78.8665C76.6093 78.8665 76.8541 78.9049 77.0846 78.9721L77.2238 78.1224C76.9597 78.0504 76.6669 78.0168 76.3837 78.0168C75.2652 78.0168 74.4923 78.5401 73.9258 79.4857H73.9162L73.801 78.1752H72.9993V86ZM78.9758 76.3174C79.3695 76.3174 79.6815 76.0006 79.6815 75.6118C79.6815 75.2229 79.3695 74.9061 78.9758 74.9061C78.587 74.9061 78.2749 75.2229 78.2749 75.6118C78.2749 76.0006 78.587 76.3174 78.9758 76.3174ZM78.5246 86H79.4319V78.1752H78.5246V86ZM81.6704 84.6319L81.2191 85.2559C81.9296 85.76 82.8225 86.1584 83.9746 86.1584C85.5492 86.1584 86.8501 85.4191 86.8501 83.9118C86.8501 81.1467 82.4577 82.2172 82.4577 80.1482C82.4577 79.1641 83.4418 78.8281 84.3346 78.8281C85.0259 78.8281 85.698 79.0345 86.2308 79.3369L86.6245 78.6889C85.9812 78.276 85.1603 78.0168 84.2674 78.0168C82.8273 78.0168 81.5504 78.6937 81.5504 80.201C81.5504 82.9997 85.938 81.934 85.938 83.9742C85.938 85.0399 84.7523 85.3375 83.8786 85.3375C83.0241 85.3375 82.3472 85.0543 81.6704 84.6319ZM87.716 78.9769H89.2138V83.6286C89.2138 85.3327 90.4955 86.072 91.8348 86.1584L91.95 85.3855C90.7883 85.1167 90.1211 84.7663 90.1211 83.0669V78.9769H92.2525V78.1752H90.1211V75.4341L89.2138 75.6262V78.1752H87.716V78.9769ZM94.1321 76.3174C94.5257 76.3174 94.8377 76.0006 94.8377 75.6118C94.8377 75.2229 94.5257 74.9061 94.1321 74.9061C93.7432 74.9061 93.4312 75.2229 93.4312 75.6118C93.4312 76.0006 93.7432 76.3174 94.1321 76.3174ZM93.6808 86H94.5881V78.1752H93.6808V86ZM104.143 78.1752H103.346L103.226 79.5626C102.52 78.5689 101.55 78.0168 100.317 78.0168C98.5068 78.0168 96.553 79.2265 96.553 82.0348C96.553 84.8239 98.478 86.1584 100.36 86.1584C101.545 86.1584 102.582 85.6256 103.226 84.6607H103.235V89.4467L104.143 89.2547V78.1752ZM100.393 85.3231C98.6364 85.3231 97.4747 83.9502 97.4747 82.054C97.4747 80.1626 98.6172 78.8521 100.345 78.8521C102.035 78.8521 103.278 80.1194 103.278 82.1308C103.278 84.171 102.006 85.3231 100.393 85.3231ZM113.358 78.1752H112.451V82.6205C112.451 84.1806 111.299 85.3135 109.681 85.3135C108.126 85.3135 107.425 84.267 107.425 82.6733V78.1752H106.518V82.9037C106.518 84.8863 107.617 86.1584 109.59 86.1584C110.8 86.1584 111.755 85.6784 112.446 84.6991L112.561 86H113.358V78.1752ZM122.137 85.2271L121.69 84.6079C120.965 85.0687 120.216 85.3327 119.333 85.3327C117.494 85.3327 116.357 84.1854 116.246 82.3804H122.799C122.813 82.2892 122.828 82.0876 122.828 81.886C122.828 79.7306 121.392 78.0168 119.175 78.0168C117.034 78.0168 115.32 79.6106 115.32 82.1452C115.32 84.7375 117.11 86.1584 119.29 86.1584C120.36 86.1584 121.378 85.8128 122.137 85.2271ZM116.266 81.6172C116.39 80.057 117.552 78.8425 119.179 78.8425C120.884 78.8425 121.868 80.177 121.911 81.6172H116.266ZM125.157 86.1584C125.56 86.1584 125.887 85.832 125.887 85.4335C125.887 85.0303 125.56 84.7039 125.157 84.7039C124.754 84.7039 124.432 85.0303 124.432 85.4335C124.432 85.832 124.754 86.1584 125.157 86.1584ZM132.203 74.8725H131.205L135.045 86H136.092L139.932 74.8725H138.982L135.588 84.8047L132.203 74.8725ZM142.101 76.3174C142.494 76.3174 142.806 76.0006 142.806 75.6118C142.806 75.2229 142.494 74.9061 142.101 74.9061C141.712 74.9061 141.4 75.2229 141.4 75.6118C141.4 76.0006 141.712 76.3174 142.101 76.3174ZM141.65 86H142.557V78.1752H141.65V86ZM145.251 78.1752H144.263L147.359 86H148.338L151.559 78.1752H150.618L147.877 84.9535L145.251 78.1752ZM159.199 85.2271L158.753 84.6079C158.028 85.0687 157.279 85.3327 156.396 85.3327C154.557 85.3327 153.419 84.1854 153.309 82.3804H159.861C159.876 82.2892 159.89 82.0876 159.89 81.886C159.89 79.7306 158.455 78.0168 156.237 78.0168C154.096 78.0168 152.382 79.6106 152.382 82.1452C152.382 84.7375 154.173 86.1584 156.352 86.1584C157.423 86.1584 158.441 85.8128 159.199 85.2271ZM153.328 81.6172C153.453 80.057 154.615 78.8425 156.242 78.8425C157.946 78.8425 158.93 80.177 158.973 81.6172H153.328ZM161.687 86H162.594V81.838C162.594 80.2778 163.468 78.8665 165.038 78.8665C165.297 78.8665 165.542 78.9049 165.772 78.9721L165.911 78.1224C165.647 78.0504 165.354 78.0168 165.071 78.0168C163.953 78.0168 163.18 78.5401 162.613 79.4857H162.604L162.489 78.1752H161.687V86ZM167.202 86H168.11V81.838C168.11 80.2778 168.983 78.8665 170.553 78.8665C170.812 78.8665 171.057 78.9049 171.288 78.9721L171.427 78.1224C171.163 78.0504 170.87 78.0168 170.587 78.0168C169.468 78.0168 168.695 78.5401 168.129 79.4857H168.119L168.004 78.1752H167.202V86ZM179.124 85.4623C178.74 85.2847 178.635 84.8719 178.635 84.0558V80.6187C178.635 78.8905 177.502 78.0168 175.5 78.0168C174.516 78.0168 173.46 78.228 172.663 78.7081L172.97 79.3945C173.709 79.0345 174.525 78.8329 175.409 78.8329C176.815 78.8329 177.737 79.3321 177.737 80.8923V81.694C176.964 81.5356 176.182 81.4203 175.385 81.4203C173.023 81.4203 171.938 82.4572 171.938 83.9022C171.938 85.4191 173.138 86.1584 174.636 86.1584C176.119 86.1584 177.329 85.4191 177.761 84.6751L177.77 84.6799C177.77 85.7312 178.342 86.1584 179.009 86.1584L179.124 85.4623ZM177.737 82.462V83.1533C177.737 84.4302 176.153 85.3519 174.727 85.3519C173.829 85.3519 172.84 84.9871 172.84 83.8734C172.84 82.8557 173.661 82.2028 175.509 82.2028C176.374 82.2028 177.19 82.3468 177.737 82.462ZM185.945 76.3174C186.338 76.3174 186.65 76.0006 186.65 75.6118C186.65 75.2229 186.338 74.9061 185.945 74.9061C185.556 74.9061 185.244 75.2229 185.244 75.6118C185.244 76.0006 185.556 76.3174 185.945 76.3174ZM185.493 86H186.401V78.1752H185.493V86ZM189.676 78.1752H188.879V89.4467L189.786 89.2547V84.6607H189.796C190.439 85.6256 191.476 86.1584 192.657 86.1584C194.539 86.1584 196.464 84.8239 196.464 82.0348C196.464 79.2265 194.515 78.0168 192.7 78.0168C191.471 78.0168 190.497 78.5689 189.791 79.5626L189.676 78.1752ZM195.547 82.054C195.547 83.9502 194.385 85.3231 192.628 85.3231C191.015 85.3231 189.743 84.171 189.743 82.1308C189.743 80.1194 190.987 78.8521 192.676 78.8521C194.405 78.8521 195.547 80.1626 195.547 82.054ZM198.186 84.6319L197.735 85.2559C198.445 85.76 199.338 86.1584 200.49 86.1584C202.065 86.1584 203.366 85.4191 203.366 83.9118C203.366 81.1467 198.973 82.2172 198.973 80.1482C198.973 79.1641 199.957 78.8281 200.85 78.8281C201.542 78.8281 202.214 79.0345 202.746 79.3369L203.14 78.6889C202.497 78.276 201.676 78.0168 200.783 78.0168C199.343 78.0168 198.066 78.6937 198.066 80.201C198.066 82.9997 202.454 81.934 202.454 83.9742C202.454 85.0399 201.268 85.3375 200.394 85.3375C199.54 85.3375 198.863 85.0543 198.186 84.6319ZM211.999 78.1752H211.092V82.6205C211.092 84.1806 209.939 85.3135 208.322 85.3135C206.766 85.3135 206.065 84.267 206.065 82.6733V78.1752H205.158V82.9037C205.158 84.8863 206.257 86.1584 208.23 86.1584C209.44 86.1584 210.395 85.6784 211.087 84.6991L211.202 86H211.999V78.1752ZM215.391 86V81.6028C215.391 80.129 216.332 78.8569 217.854 78.8569C219.299 78.8569 219.836 80.009 219.836 81.502V86H220.744V81.6028C220.744 80.1002 221.694 78.8521 223.216 78.8569C224.675 78.8569 225.189 80.0234 225.189 81.502V86H226.096V81.2715C226.096 79.4137 225.194 78.0168 223.35 78.0168C222.078 78.0168 221.08 78.6841 220.499 79.769C220.105 78.6457 219.15 78.0168 217.945 78.0168C216.846 78.0168 215.996 78.5401 215.396 79.4713L215.281 78.1752H214.484V86H215.391ZM239.728 86V81.2715C239.728 79.2745 238.6 78.0168 236.622 78.0168C235.384 78.0168 234.404 78.5113 233.708 79.4857L233.593 78.1752H232.796V86H233.708V81.55C233.708 79.9946 234.889 78.8569 236.521 78.8569C238.077 78.8569 238.821 79.8938 238.821 81.502V86H239.728ZM248.858 78.1752H247.951V82.6205C247.951 84.1806 246.799 85.3135 245.181 85.3135C243.626 85.3135 242.925 84.267 242.925 82.6733V78.1752H242.018V82.9037C242.018 84.8863 243.117 86.1584 245.09 86.1584C246.3 86.1584 247.255 85.6784 247.946 84.6991L248.061 86H248.858V78.1752ZM258.275 86V81.2715C258.275 79.2745 257.147 78.0168 255.169 78.0168C253.931 78.0168 252.951 78.5113 252.255 79.4857L252.14 78.1752H251.343V86H252.255V81.55C252.255 79.9946 253.436 78.8569 255.068 78.8569C256.624 78.8569 257.368 79.8938 257.368 81.502V86H258.275ZM266.138 84.8047C265.552 85.1215 264.918 85.3231 264.198 85.3231C262.441 85.3231 261.044 84.1182 261.044 82.1164C261.044 80.1434 262.403 78.8521 264.256 78.8521C264.918 78.8521 265.518 79.0201 266.109 79.3081L266.512 78.6313C265.874 78.2424 265.072 78.0168 264.218 78.0168C261.957 78.0168 260.132 79.5914 260.132 82.1404C260.132 84.7855 262.101 86.1584 264.17 86.1584C265.058 86.1584 265.893 85.904 266.603 85.4431L266.138 84.8047ZM279.109 85.4623C278.725 85.2847 278.619 84.8719 278.619 84.0558V80.6187C278.619 78.8905 277.486 78.0168 275.484 78.0168C274.5 78.0168 273.444 78.228 272.647 78.7081L272.954 79.3945C273.694 79.0345 274.51 78.8329 275.393 78.8329C276.8 78.8329 277.721 79.3321 277.721 80.8923V81.694C276.948 81.5356 276.166 81.4203 275.369 81.4203C273.007 81.4203 271.922 82.4572 271.922 83.9022C271.922 85.4191 273.122 86.1584 274.62 86.1584C276.103 86.1584 277.313 85.4191 277.745 84.6751L277.755 84.6799C277.755 85.7312 278.326 86.1584 278.993 86.1584L279.109 85.4623ZM277.721 82.462V83.1533C277.721 84.4302 276.137 85.3519 274.711 85.3519C273.814 85.3519 272.825 84.9871 272.825 83.8734C272.825 82.8557 273.646 82.2028 275.494 82.2028C276.358 82.2028 277.174 82.3468 277.721 82.462ZM281.126 84.5599C281.126 85.6688 281.702 86.1584 282.412 86.1584L282.527 85.4335C282.134 85.2511 282.033 84.8047 282.033 83.9886V74.3588L281.126 74.5509V84.5599ZM285.07 76.3174C285.463 76.3174 285.775 76.0006 285.775 75.6118C285.775 75.2229 285.463 74.9061 285.07 74.9061C284.681 74.9061 284.369 75.2229 284.369 75.6118C284.369 76.0006 284.681 76.3174 285.07 76.3174ZM284.618 86H285.526V78.1752H284.618V86ZM295.08 78.1752H294.283L294.163 79.5626C293.457 78.5689 292.488 78.0168 291.254 78.0168C289.444 78.0168 287.49 79.2265 287.49 82.0348C287.49 84.8239 289.415 86.1584 291.297 86.1584C292.483 86.1584 293.52 85.6256 294.163 84.6607H294.173V89.4467L295.08 89.2547V78.1752ZM291.331 85.3231C289.574 85.3231 288.412 83.9502 288.412 82.054C288.412 80.1626 289.555 78.8521 291.283 78.8521C292.973 78.8521 294.216 80.1194 294.216 82.1308C294.216 84.171 292.944 85.3231 291.331 85.3231ZM304.296 78.1752H303.388V82.6205C303.388 84.1806 302.236 85.3135 300.619 85.3135C299.063 85.3135 298.362 84.267 298.362 82.6733V78.1752H297.455V82.9037C297.455 84.8863 298.554 86.1584 300.527 86.1584C301.737 86.1584 302.692 85.6784 303.384 84.6991L303.499 86H304.296V78.1752ZM313.074 85.2271L312.628 84.6079C311.903 85.0687 311.154 85.3327 310.271 85.3327C308.432 85.3327 307.294 84.1854 307.184 82.3804H313.736C313.751 82.2892 313.765 82.0876 313.765 81.886C313.765 79.7306 312.33 78.0168 310.112 78.0168C307.971 78.0168 306.257 79.6106 306.257 82.1452C306.257 84.7375 308.048 86.1584 310.227 86.1584C311.298 86.1584 312.316 85.8128 313.074 85.2271ZM307.203 81.6172C307.328 80.057 308.49 78.8425 310.117 78.8425C311.821 78.8425 312.805 80.177 312.848 81.6172H307.203ZM314.544 78.9769H316.042V83.6286C316.042 85.3327 317.324 86.072 318.663 86.1584L318.778 85.3855C317.616 85.1167 316.949 84.7663 316.949 83.0669V78.9769H319.081V78.1752H316.949V75.4341L316.042 75.6262V78.1752H314.544V78.9769ZM325.634 86L325.749 84.6127C326.455 85.6064 327.429 86.1584 328.658 86.1584C330.473 86.1584 332.422 84.9487 332.422 82.1404C332.422 79.3513 330.497 78.0168 328.615 78.0168C327.434 78.0168 326.397 78.5497 325.754 79.5146H325.744V74.3588L324.837 74.5509V86H325.634ZM328.634 85.3231C326.944 85.3231 325.701 84.0558 325.701 82.0444C325.701 80.0042 326.973 78.8521 328.586 78.8521C330.343 78.8521 331.505 80.225 331.505 82.1212C331.505 84.0126 330.362 85.3231 328.634 85.3231ZM334.835 76.3174C335.229 76.3174 335.541 76.0006 335.541 75.6118C335.541 75.2229 335.229 74.9061 334.835 74.9061C334.446 74.9061 334.134 75.2229 334.134 75.6118C334.134 76.0006 334.446 76.3174 334.835 76.3174ZM334.384 86H335.291V78.1752H334.384V86ZM338.571 86L338.687 84.6127C339.392 85.6064 340.367 86.1584 341.596 86.1584C343.41 86.1584 345.359 84.9487 345.359 82.1404C345.359 79.3513 343.434 78.0168 341.553 78.0168C340.372 78.0168 339.335 78.5497 338.691 79.5146H338.682V74.3588L337.775 74.5509V86H338.571ZM341.572 85.3231C339.882 85.3231 338.639 84.0558 338.639 82.0444C338.639 80.0042 339.911 78.8521 341.524 78.8521C343.281 78.8521 344.442 80.225 344.442 82.1212C344.442 84.0126 343.3 85.3231 341.572 85.3231ZM353.605 85.2271L353.159 84.6079C352.434 85.0687 351.685 85.3327 350.802 85.3327C348.963 85.3327 347.825 84.1854 347.715 82.3804H354.268C354.282 82.2892 354.297 82.0876 354.297 81.886C354.297 79.7306 352.861 78.0168 350.643 78.0168C348.502 78.0168 346.789 79.6106 346.789 82.1452C346.789 84.7375 348.579 86.1584 350.759 86.1584C351.829 86.1584 352.847 85.8128 353.605 85.2271ZM347.734 81.6172C347.859 80.057 349.021 78.8425 350.648 78.8425C352.352 78.8425 353.336 80.177 353.38 81.6172H347.734ZM363.025 86V81.2715C363.025 79.2745 361.897 78.0168 359.919 78.0168C358.681 78.0168 357.701 78.5113 357.005 79.4857L356.89 78.1752H356.093V86H357.005V81.55C357.005 79.9946 358.186 78.8569 359.818 78.8569C361.374 78.8569 362.118 79.8938 362.118 81.502V86H363.025ZM371.685 86H372.482V74.3588L371.574 74.5509V79.5146H371.565C370.921 78.5497 369.884 78.0168 368.699 78.0168C366.817 78.0168 364.892 79.3513 364.892 82.1404C364.892 84.9487 366.846 86.1584 368.656 86.1584C369.889 86.1584 370.859 85.6064 371.565 84.6127L371.685 86ZM368.684 85.3231C366.956 85.3231 365.814 84.0126 365.814 82.1212C365.814 80.225 366.975 78.8521 368.732 78.8521C370.345 78.8521 371.617 80.0042 371.617 82.0444C371.617 84.0558 370.374 85.3231 368.684 85.3231ZM381.702 78.1752H380.795V82.6205C380.795 84.1806 379.643 85.3135 378.025 85.3135C376.469 85.3135 375.769 84.267 375.769 82.6733V78.1752H374.861V82.9037C374.861 84.8863 375.961 86.1584 377.934 86.1584C379.143 86.1584 380.099 85.6784 380.79 84.6991L380.905 86H381.702V78.1752ZM385.094 86V81.6028C385.094 80.129 386.035 78.8569 387.557 78.8569C389.002 78.8569 389.539 80.009 389.539 81.502V86H390.447V81.6028C390.447 80.1002 391.397 78.8521 392.919 78.8569C394.378 78.8569 394.892 80.0234 394.892 81.502V86H395.799V81.2715C395.799 79.4137 394.897 78.0168 393.053 78.0168C391.781 78.0168 390.783 78.6841 390.202 79.769C389.808 78.6457 388.853 78.0168 387.648 78.0168C386.549 78.0168 385.699 78.5401 385.099 79.4713L384.984 78.1752H384.187V86H385.094ZM28.5272 114.227L28.0807 113.608C27.3558 114.069 26.607 114.333 25.7237 114.333C23.8851 114.333 22.7474 113.185 22.637 111.38H29.1896C29.204 111.289 29.2184 111.088 29.2184 110.886C29.2184 108.731 27.7831 107.017 25.5653 107.017C23.4242 107.017 21.7105 108.611 21.7105 111.145C21.7105 113.737 23.501 115.158 25.6805 115.158C26.751 115.158 27.7687 114.813 28.5272 114.227ZM22.6562 110.617C22.781 109.057 23.9427 107.842 25.5701 107.842C27.2742 107.842 28.2583 109.177 28.3015 110.617H22.6562ZM37.9469 115V110.272C37.9469 108.275 36.8188 107.017 34.841 107.017C33.6024 107.017 32.6231 107.511 31.9271 108.486L31.8119 107.175H31.015V115H31.9271V110.55C31.9271 108.995 33.108 107.857 34.7401 107.857C36.2955 107.857 37.0396 108.894 37.0396 110.502V115H37.9469ZM40.7883 105.317C41.182 105.317 41.494 105.001 41.494 104.612C41.494 104.223 41.182 103.906 40.7883 103.906C40.3995 103.906 40.0874 104.223 40.0874 104.612C40.0874 105.001 40.3995 105.317 40.7883 105.317ZM40.3371 115H41.2444V107.175H40.3371V115ZM44.6254 115V110.603C44.6254 109.129 45.5663 107.857 47.088 107.857C48.533 107.857 49.0706 109.009 49.0706 110.502V115H49.9779V110.603C49.9779 109.1 50.9284 107.852 52.4502 107.857C53.9095 107.857 54.4232 109.023 54.4232 110.502V115H55.3305V110.272C55.3305 108.414 54.428 107.017 52.5846 107.017C51.3125 107.017 50.314 107.684 49.7331 108.769C49.3395 107.646 48.3842 107.017 47.1792 107.017C46.0799 107.017 45.2302 107.54 44.6302 108.471L44.515 107.175H43.7181V115H44.6254ZM60.8277 107.977H62.3303V115H63.2376V107.977H65.3978V107.175H63.2376V106.11C63.2376 104.761 63.684 104.18 65.0378 104.18C65.2922 104.18 65.4794 104.204 65.6906 104.233L65.8058 103.46C65.5706 103.407 65.2346 103.359 64.865 103.359C63.2808 103.359 62.3303 104.261 62.3303 105.841V107.175H60.8277V107.977ZM73.2648 114.462C72.8808 114.285 72.7752 113.872 72.7752 113.056V109.619C72.7752 107.89 71.6423 107.017 69.6405 107.017C68.6564 107.017 67.6003 107.228 66.8034 107.708L67.1106 108.395C67.8499 108.035 68.666 107.833 69.5493 107.833C70.9558 107.833 71.8775 108.332 71.8775 109.892V110.694C71.1046 110.536 70.3221 110.42 69.5252 110.42C67.1634 110.42 66.0785 111.457 66.0785 112.902C66.0785 114.419 67.2786 115.158 68.7764 115.158C70.2597 115.158 71.4694 114.419 71.9015 113.675L71.9111 113.68C71.9111 114.731 72.4823 115.158 73.1496 115.158L73.2648 114.462ZM71.8775 111.462V112.153C71.8775 113.43 70.2933 114.352 68.8676 114.352C67.9699 114.352 66.981 113.987 66.981 112.873C66.981 111.856 67.8019 111.203 69.6501 111.203C70.5141 111.203 71.3302 111.347 71.8775 111.462ZM80.7784 113.805C80.1927 114.122 79.559 114.323 78.839 114.323C77.082 114.323 75.6851 113.118 75.6851 111.116C75.6851 109.143 77.0436 107.852 78.8966 107.852C79.559 107.852 80.1591 108.02 80.7496 108.308L81.1528 107.631C80.5143 107.242 79.7127 107.017 78.8582 107.017C76.5972 107.017 74.773 108.591 74.773 111.14C74.773 113.785 76.7412 115.158 78.8102 115.158C79.6983 115.158 80.5335 114.904 81.244 114.443L80.7784 113.805ZM83.3821 105.317C83.7757 105.317 84.0877 105.001 84.0877 104.612C84.0877 104.223 83.7757 103.906 83.3821 103.906C82.9932 103.906 82.6812 104.223 82.6812 104.612C82.6812 105.001 82.9932 105.317 83.3821 105.317ZM82.9308 115H83.8381V107.175H82.9308V115ZM86.2974 113.56C86.2974 114.669 86.8735 115.158 87.584 115.158L87.6992 114.434C87.3055 114.251 87.2047 113.805 87.2047 112.989V103.359L86.2974 103.551V113.56ZM90.2414 105.317C90.6351 105.317 90.9471 105.001 90.9471 104.612C90.9471 104.223 90.6351 103.906 90.2414 103.906C89.8526 103.906 89.5406 104.223 89.5406 104.612C89.5406 105.001 89.8526 105.317 90.2414 105.317ZM89.7902 115H90.6975V107.175H89.7902V115ZM92.936 113.632L92.4848 114.256C93.1952 114.76 94.0881 115.158 95.2402 115.158C96.8148 115.158 98.1157 114.419 98.1157 112.912C98.1157 110.147 93.7233 111.217 93.7233 109.148C93.7233 108.164 94.7074 107.828 95.6003 107.828C96.2915 107.828 96.9636 108.035 97.4965 108.337L97.8901 107.689C97.2468 107.276 96.4259 107.017 95.5331 107.017C94.0929 107.017 92.816 107.694 92.816 109.201C92.816 112 97.2036 110.934 97.2036 112.974C97.2036 114.04 96.0179 114.338 95.1442 114.338C94.2897 114.338 93.6129 114.054 92.936 113.632ZM100.46 105.317C100.854 105.317 101.166 105.001 101.166 104.612C101.166 104.223 100.854 103.906 100.46 103.906C100.071 103.906 99.7593 104.223 99.7593 104.612C99.7593 105.001 100.071 105.317 100.46 105.317ZM100.009 115H100.916V107.175H100.009V115ZM103.155 113.632L102.704 114.256C103.414 114.76 104.307 115.158 105.459 115.158C107.034 115.158 108.334 114.419 108.334 112.912C108.334 110.147 103.942 111.217 103.942 109.148C103.942 108.164 104.926 107.828 105.819 107.828C106.51 107.828 107.182 108.035 107.715 108.337L108.109 107.689C107.466 107.276 106.645 107.017 105.752 107.017C104.312 107.017 103.035 107.694 103.035 109.201C103.035 112 107.422 110.934 107.422 112.974C107.422 114.04 106.237 114.338 105.363 114.338C104.508 114.338 103.832 114.054 103.155 113.632ZM121.617 107.175H120.811L120.696 108.553C120.014 107.559 119.03 107.017 117.811 107.017C116.03 107.017 114.042 108.188 114.042 110.929C114.042 113.646 115.996 114.909 117.82 114.909C119.006 114.909 120.067 114.366 120.7 113.401H120.71V114.477C120.71 116.743 119.443 117.611 117.695 117.611C116.793 117.611 116.087 117.371 115.3 116.853L114.839 117.482C115.679 118.101 116.625 118.447 117.767 118.447C120.004 118.447 121.617 117.131 121.617 114.755V107.175ZM117.878 114.074C116.106 114.074 114.959 112.71 114.959 110.934C114.959 109.196 116.063 107.852 117.82 107.852C119.481 107.852 120.748 109.057 120.748 110.996C120.748 112.912 119.51 114.074 117.878 114.074ZM124.077 115H124.985V110.838C124.985 109.278 125.858 107.866 127.428 107.866C127.687 107.866 127.932 107.905 128.163 107.972L128.302 107.122C128.038 107.05 127.745 107.017 127.462 107.017C126.343 107.017 125.57 107.54 125.004 108.486H124.994L124.879 107.175H124.077V115ZM135.999 114.462C135.615 114.285 135.51 113.872 135.51 113.056V109.619C135.51 107.89 134.377 107.017 132.375 107.017C131.391 107.017 130.335 107.228 129.538 107.708L129.845 108.395C130.584 108.035 131.4 107.833 132.284 107.833C133.69 107.833 134.612 108.332 134.612 109.892V110.694C133.839 110.536 133.057 110.42 132.26 110.42C129.898 110.42 128.813 111.457 128.813 112.902C128.813 114.419 130.013 115.158 131.511 115.158C132.994 115.158 134.204 114.419 134.636 113.675L134.645 113.68C134.645 114.731 135.217 115.158 135.884 115.158L135.999 114.462ZM134.612 111.462V112.153C134.612 113.43 133.028 114.352 131.602 114.352C130.704 114.352 129.715 113.987 129.715 112.873C129.715 111.856 130.536 111.203 132.384 111.203C133.249 111.203 134.065 111.347 134.612 111.462ZM137.97 107.175H136.981L140.078 115H141.057L144.278 107.175H143.337L140.596 113.953L137.97 107.175ZM146.382 105.317C146.776 105.317 147.088 105.001 147.088 104.612C147.088 104.223 146.776 103.906 146.382 103.906C145.993 103.906 145.681 104.223 145.681 104.612C145.681 105.001 145.993 105.317 146.382 105.317ZM145.931 115H146.838V107.175H145.931V115ZM155.591 115H156.388V103.359L155.48 103.551V108.515H155.471C154.828 107.55 153.791 107.017 152.605 107.017C150.723 107.017 148.798 108.351 148.798 111.14C148.798 113.949 150.752 115.158 152.562 115.158C153.795 115.158 154.765 114.606 155.471 113.613L155.591 115ZM152.591 114.323C150.862 114.323 149.72 113.013 149.72 111.121C149.72 109.225 150.882 107.852 152.639 107.852C154.252 107.852 155.524 109.004 155.524 111.044C155.524 113.056 154.28 114.323 152.591 114.323ZM159.392 115.158C159.795 115.158 160.121 114.832 160.121 114.434C160.121 114.03 159.795 113.704 159.392 113.704C158.988 113.704 158.667 114.03 158.667 114.434C158.667 114.832 158.988 115.158 159.392 115.158ZM22.4689 161.872H21.4704L25.3108 173H26.3573L30.1977 161.872H29.2472L25.8533 171.805L22.4689 161.872ZM32.3664 163.317C32.7601 163.317 33.0721 163.001 33.0721 162.612C33.0721 162.223 32.7601 161.906 32.3664 161.906C31.9776 161.906 31.6656 162.223 31.6656 162.612C31.6656 163.001 31.9776 163.317 32.3664 163.317ZM31.9152 173H32.8225V165.175H31.9152V173ZM35.517 165.175H34.5281L37.6245 173H38.6038L41.8249 165.175H40.884L38.1429 171.953L35.517 165.175ZM49.4647 172.227L49.0182 171.608C48.2933 172.069 47.5445 172.333 46.6612 172.333C44.8226 172.333 43.6849 171.185 43.5745 169.38H50.1271C50.1415 169.289 50.1559 169.088 50.1559 168.886C50.1559 166.731 48.7206 165.017 46.5028 165.017C44.3617 165.017 42.648 166.611 42.648 169.145C42.648 171.737 44.4385 173.158 46.618 173.158C47.6885 173.158 48.7062 172.813 49.4647 172.227ZM43.5937 168.617C43.7185 167.057 44.8802 165.842 46.5076 165.842C48.2117 165.842 49.1958 167.177 49.239 168.617H43.5937ZM51.9525 173H52.8598V168.838C52.8598 167.278 53.7335 165.866 55.3032 165.866C55.5624 165.866 55.8073 165.905 56.0377 165.972L56.1769 165.122C55.9129 165.05 55.62 165.017 55.3368 165.017C54.2183 165.017 53.4454 165.54 52.879 166.486H52.8694L52.7542 165.175H51.9525V173ZM57.4681 173H58.3754V168.838C58.3754 167.278 59.2491 165.866 60.8188 165.866C61.0781 165.866 61.3229 165.905 61.5533 165.972L61.6925 165.122C61.4285 165.05 61.1357 165.017 60.8524 165.017C59.7339 165.017 58.961 165.54 58.3946 166.486H58.385L58.2698 165.175H57.4681V173ZM69.3898 172.462C69.0058 172.285 68.9002 171.872 68.9002 171.056V167.619C68.9002 165.89 67.7673 165.017 65.7655 165.017C64.7814 165.017 63.7253 165.228 62.9284 165.708L63.2356 166.395C63.9749 166.035 64.791 165.833 65.6743 165.833C67.0808 165.833 68.0025 166.332 68.0025 167.892V168.694C67.2296 168.536 66.4471 168.42 65.6502 168.42C63.2884 168.42 62.2035 169.457 62.2035 170.902C62.2035 172.419 63.4036 173.158 64.9014 173.158C66.3847 173.158 67.5944 172.419 68.0265 171.675L68.0361 171.68C68.0361 172.731 68.6073 173.158 69.2746 173.158L69.3898 172.462ZM68.0025 169.462V170.153C68.0025 171.43 66.4183 172.352 64.9926 172.352C64.0949 172.352 63.106 171.987 63.106 170.873C63.106 169.856 63.9269 169.203 65.7751 169.203C66.6391 169.203 67.4552 169.347 68.0025 169.462ZM76.2102 163.317C76.6038 163.317 76.9159 163.001 76.9159 162.612C76.9159 162.223 76.6038 161.906 76.2102 161.906C75.8214 161.906 75.5093 162.223 75.5093 162.612C75.5093 163.001 75.8214 163.317 76.2102 163.317ZM75.7589 173H76.6662V165.175H75.7589V173ZM79.9417 165.175H79.1448V176.447L80.0521 176.255V171.661H80.0617C80.7049 172.626 81.7418 173.158 82.9228 173.158C84.8045 173.158 86.7295 171.824 86.7295 169.035C86.7295 166.227 84.7805 165.017 82.966 165.017C81.737 165.017 80.7625 165.569 80.0569 166.563L79.9417 165.175ZM85.8126 169.054C85.8126 170.95 84.6509 172.323 82.8939 172.323C81.281 172.323 80.0089 171.171 80.0089 169.131C80.0089 167.119 81.2522 165.852 82.942 165.852C84.6701 165.852 85.8126 167.163 85.8126 169.054ZM88.4516 171.632L88.0004 172.256C88.7109 172.76 89.6037 173.158 90.7559 173.158C92.3304 173.158 93.6313 172.419 93.6313 170.912C93.6313 168.147 89.2389 169.217 89.2389 167.148C89.2389 166.164 90.223 165.828 91.1159 165.828C91.8072 165.828 92.4792 166.035 93.0121 166.337L93.4057 165.689C92.7625 165.276 91.9416 165.017 91.0487 165.017C89.6085 165.017 88.3316 165.694 88.3316 167.201C88.3316 170 92.7193 168.934 92.7193 170.974C92.7193 172.04 91.5335 172.338 90.6598 172.338C89.8054 172.338 89.1285 172.054 88.4516 171.632ZM102.264 165.175H101.357V169.62C101.357 171.181 100.205 172.314 98.5873 172.314C97.0319 172.314 96.3311 171.267 96.3311 169.673V165.175H95.4238V169.904C95.4238 171.886 96.5231 173.158 98.4961 173.158C99.7058 173.158 100.661 172.678 101.352 171.699L101.468 173H102.264V165.175ZM105.657 173V168.603C105.657 167.129 106.598 165.857 108.119 165.857C109.564 165.857 110.102 167.009 110.102 168.502V173H111.009V168.603C111.009 167.1 111.96 165.852 113.481 165.857C114.941 165.857 115.454 167.023 115.454 168.502V173H116.362V168.272C116.362 166.414 115.459 165.017 113.616 165.017C112.344 165.017 111.345 165.684 110.764 166.769C110.371 165.646 109.415 165.017 108.21 165.017C107.111 165.017 106.261 165.54 105.661 166.471L105.546 165.175H104.749V173H105.657ZM129.994 173V168.272C129.994 166.275 128.866 165.017 126.888 165.017C125.649 165.017 124.67 165.511 123.974 166.486L123.859 165.175H123.062V173H123.974V168.55C123.974 166.995 125.155 165.857 126.787 165.857C128.342 165.857 129.086 166.894 129.086 168.502V173H129.994ZM139.124 165.175H138.217V169.62C138.217 171.181 137.064 172.314 135.447 172.314C133.891 172.314 133.19 171.267 133.19 169.673V165.175H132.283V169.904C132.283 171.886 133.382 173.158 135.355 173.158C136.565 173.158 137.52 172.678 138.212 171.699L138.327 173H139.124V165.175ZM148.541 173V168.272C148.541 166.275 147.413 165.017 145.435 165.017C144.196 165.017 143.217 165.511 142.521 166.486L142.406 165.175H141.609V173H142.521V168.55C142.521 166.995 143.702 165.857 145.334 165.857C146.889 165.857 147.633 166.894 147.633 168.502V173H148.541ZM156.403 171.805C155.818 172.122 155.184 172.323 154.464 172.323C152.707 172.323 151.31 171.118 151.31 169.116C151.31 167.143 152.669 165.852 154.522 165.852C155.184 165.852 155.784 166.02 156.375 166.308L156.778 165.631C156.139 165.242 155.338 165.017 154.483 165.017C152.222 165.017 150.398 166.591 150.398 169.14C150.398 171.785 152.366 173.158 154.435 173.158C155.323 173.158 156.159 172.904 156.869 172.443L156.403 171.805ZM169.374 172.462C168.99 172.285 168.885 171.872 168.885 171.056V167.619C168.885 165.89 167.752 165.017 165.75 165.017C164.766 165.017 163.71 165.228 162.913 165.708L163.22 166.395C163.959 166.035 164.775 165.833 165.659 165.833C167.065 165.833 167.987 166.332 167.987 167.892V168.694C167.214 168.536 166.432 168.42 165.635 168.42C163.273 168.42 162.188 169.457 162.188 170.902C162.188 172.419 163.388 173.158 164.886 173.158C166.369 173.158 167.579 172.419 168.011 171.675L168.02 171.68C168.02 172.731 168.592 173.158 169.259 173.158L169.374 172.462ZM167.987 169.462V170.153C167.987 171.43 166.403 172.352 164.977 172.352C164.079 172.352 163.09 171.987 163.09 170.873C163.09 169.856 163.911 169.203 165.759 169.203C166.624 169.203 167.44 169.347 167.987 169.462ZM171.391 171.56C171.391 172.669 171.967 173.158 172.678 173.158L172.793 172.434C172.399 172.251 172.298 171.805 172.298 170.989V161.359L171.391 161.551V171.56ZM175.335 163.317C175.729 163.317 176.041 163.001 176.041 162.612C176.041 162.223 175.729 161.906 175.335 161.906C174.946 161.906 174.634 162.223 174.634 162.612C174.634 163.001 174.946 163.317 175.335 163.317ZM174.884 173H175.791V165.175H174.884V173ZM185.346 165.175H184.549L184.429 166.563C183.723 165.569 182.753 165.017 181.52 165.017C179.71 165.017 177.756 166.227 177.756 169.035C177.756 171.824 179.681 173.158 181.563 173.158C182.749 173.158 183.786 172.626 184.429 171.661H184.438V176.447L185.346 176.255V165.175ZM181.597 172.323C179.84 172.323 178.678 170.95 178.678 169.054C178.678 167.163 179.82 165.852 181.549 165.852C183.238 165.852 184.482 167.119 184.482 169.131C184.482 171.171 183.209 172.323 181.597 172.323ZM194.561 165.175H193.654V169.62C193.654 171.181 192.502 172.314 190.884 172.314C189.329 172.314 188.628 171.267 188.628 169.673V165.175H187.721V169.904C187.721 171.886 188.82 173.158 190.793 173.158C192.003 173.158 192.958 172.678 193.649 171.699L193.764 173H194.561V165.175ZM203.34 172.227L202.893 171.608C202.168 172.069 201.419 172.333 200.536 172.333C198.698 172.333 197.56 171.185 197.449 169.38H204.002C204.017 169.289 204.031 169.088 204.031 168.886C204.031 166.731 202.596 165.017 200.378 165.017C198.237 165.017 196.523 166.611 196.523 169.145C196.523 171.737 198.314 173.158 200.493 173.158C201.563 173.158 202.581 172.813 203.34 172.227ZM197.469 168.617C197.593 167.057 198.755 165.842 200.383 165.842C202.087 165.842 203.071 167.177 203.114 168.617H197.469ZM204.81 165.977H206.308V170.629C206.308 172.333 207.589 173.072 208.929 173.158L209.044 172.386C207.882 172.117 207.215 171.766 207.215 170.067V165.977H209.346V165.175H207.215V162.434L206.308 162.626V165.175H204.81V165.977ZM215.9 173L216.015 171.613C216.72 172.606 217.695 173.158 218.924 173.158C220.738 173.158 222.687 171.949 222.687 169.14C222.687 166.351 220.762 165.017 218.881 165.017C217.7 165.017 216.663 165.55 216.02 166.515H216.01V161.359L215.103 161.551V173H215.9ZM218.9 172.323C217.21 172.323 215.967 171.056 215.967 169.044C215.967 167.004 217.239 165.852 218.852 165.852C220.609 165.852 221.771 167.225 221.771 169.121C221.771 171.013 220.628 172.323 218.9 172.323ZM225.101 163.317C225.494 163.317 225.806 163.001 225.806 162.612C225.806 162.223 225.494 161.906 225.101 161.906C224.712 161.906 224.4 162.223 224.4 162.612C224.4 163.001 224.712 163.317 225.101 163.317ZM224.65 173H225.557V165.175H224.65V173ZM228.837 173L228.952 171.613C229.658 172.606 230.632 173.158 231.861 173.158C233.676 173.158 235.625 171.949 235.625 169.14C235.625 166.351 233.7 165.017 231.818 165.017C230.637 165.017 229.6 165.55 228.957 166.515H228.947V161.359L228.04 161.551V173H228.837ZM231.837 172.323C230.148 172.323 228.904 171.056 228.904 169.044C228.904 167.004 230.176 165.852 231.789 165.852C233.546 165.852 234.708 167.225 234.708 169.121C234.708 171.013 233.566 172.323 231.837 172.323ZM243.871 172.227L243.424 171.608C242.7 172.069 241.951 172.333 241.067 172.333C239.229 172.333 238.091 171.185 237.981 169.38H244.533C244.548 169.289 244.562 169.088 244.562 168.886C244.562 166.731 243.127 165.017 240.909 165.017C238.768 165.017 237.054 166.611 237.054 169.145C237.054 171.737 238.845 173.158 241.024 173.158C242.095 173.158 243.112 172.813 243.871 172.227ZM238 168.617C238.125 167.057 239.286 165.842 240.914 165.842C242.618 165.842 243.602 167.177 243.645 168.617H238ZM253.291 173V168.272C253.291 166.275 252.163 165.017 250.185 165.017C248.946 165.017 247.967 165.511 247.271 166.486L247.156 165.175H246.359V173H247.271V168.55C247.271 166.995 248.452 165.857 250.084 165.857C251.639 165.857 252.383 166.894 252.383 168.502V173H253.291ZM261.95 173H262.747V161.359L261.84 161.551V166.515H261.83C261.187 165.55 260.15 165.017 258.964 165.017C257.083 165.017 255.158 166.351 255.158 169.14C255.158 171.949 257.111 173.158 258.921 173.158C260.155 173.158 261.125 172.606 261.83 171.613L261.95 173ZM258.95 172.323C257.222 172.323 256.079 171.013 256.079 169.121C256.079 167.225 257.241 165.852 258.998 165.852C260.611 165.852 261.883 167.004 261.883 169.044C261.883 171.056 260.64 172.323 258.95 172.323ZM271.968 165.175H271.06V169.62C271.06 171.181 269.908 172.314 268.29 172.314C266.735 172.314 266.034 171.267 266.034 169.673V165.175H265.127V169.904C265.127 171.886 266.226 173.158 268.199 173.158C269.409 173.158 270.364 172.678 271.055 171.699L271.171 173H271.968V165.175ZM275.36 173V168.603C275.36 167.129 276.301 165.857 277.822 165.857C279.267 165.857 279.805 167.009 279.805 168.502V173H280.712V168.603C280.712 167.1 281.663 165.852 283.185 165.857C284.644 165.857 285.158 167.023 285.158 168.502V173H286.065V168.272C286.065 166.414 285.162 165.017 283.319 165.017C282.047 165.017 281.048 165.684 280.467 166.769C280.074 165.646 279.119 165.017 277.914 165.017C276.814 165.017 275.965 165.54 275.365 166.471L275.249 165.175H274.452V173H275.36ZM299.058 172.227L298.612 171.608C297.887 172.069 297.138 172.333 296.255 172.333C294.416 172.333 293.279 171.185 293.168 169.38H299.721C299.735 169.289 299.75 169.088 299.75 168.886C299.75 166.731 298.314 165.017 296.097 165.017C293.955 165.017 292.242 166.611 292.242 169.145C292.242 171.737 294.032 173.158 296.212 173.158C297.282 173.158 298.3 172.813 299.058 172.227ZM293.187 168.617C293.312 167.057 294.474 165.842 296.101 165.842C297.805 165.842 298.79 167.177 298.833 168.617H293.187ZM308.478 173V168.272C308.478 166.275 307.35 165.017 305.372 165.017C304.134 165.017 303.154 165.511 302.458 166.486L302.343 165.175H301.546V173H302.458V168.55C302.458 166.995 303.639 165.857 305.271 165.857C306.827 165.857 307.571 166.894 307.571 168.502V173H308.478ZM311.32 163.317C311.713 163.317 312.025 163.001 312.025 162.612C312.025 162.223 311.713 161.906 311.32 161.906C310.931 161.906 310.619 162.223 310.619 162.612C310.619 163.001 310.931 163.317 311.32 163.317ZM310.868 173H311.776V165.175H310.868V173ZM315.157 173V168.603C315.157 167.129 316.098 165.857 317.619 165.857C319.064 165.857 319.602 167.009 319.602 168.502V173H320.509V168.603C320.509 167.1 321.46 165.852 322.981 165.857C324.441 165.857 324.954 167.023 324.954 168.502V173H325.862V168.272C325.862 166.414 324.959 165.017 323.116 165.017C321.844 165.017 320.845 165.684 320.264 166.769C319.871 165.646 318.915 165.017 317.71 165.017C316.611 165.017 315.761 165.54 315.161 166.471L315.046 165.175H314.249V173H315.157ZM331.359 165.977H332.862V173H333.769V165.977H335.929V165.175H333.769V164.11C333.769 162.761 334.215 162.18 335.569 162.18C335.823 162.18 336.011 162.204 336.222 162.233L336.337 161.46C336.102 161.407 335.766 161.359 335.396 161.359C333.812 161.359 332.862 162.261 332.862 163.841V165.175H331.359V165.977ZM343.796 172.462C343.412 172.285 343.306 171.872 343.306 171.056V167.619C343.306 165.89 342.174 165.017 340.172 165.017C339.188 165.017 338.132 165.228 337.335 165.708L337.642 166.395C338.381 166.035 339.197 165.833 340.081 165.833C341.487 165.833 342.409 166.332 342.409 167.892V168.694C341.636 168.536 340.853 168.42 340.056 168.42C337.695 168.42 336.61 169.457 336.61 170.902C336.61 172.419 337.81 173.158 339.308 173.158C340.791 173.158 342.001 172.419 342.433 171.675L342.442 171.68C342.442 172.731 343.014 173.158 343.681 173.158L343.796 172.462ZM342.409 169.462V170.153C342.409 171.43 340.825 172.352 339.399 172.352C338.501 172.352 337.512 171.987 337.512 170.873C337.512 169.856 338.333 169.203 340.181 169.203C341.045 169.203 341.861 169.347 342.409 169.462ZM351.31 171.805C350.724 172.122 350.09 172.323 349.37 172.323C347.613 172.323 346.216 171.118 346.216 169.116C346.216 167.143 347.575 165.852 349.428 165.852C350.09 165.852 350.69 166.02 351.281 166.308L351.684 165.631C351.046 165.242 350.244 165.017 349.389 165.017C347.128 165.017 345.304 166.591 345.304 169.14C345.304 171.785 347.272 173.158 349.341 173.158C350.23 173.158 351.065 172.904 351.775 172.443L351.31 171.805ZM353.913 163.317C354.307 163.317 354.619 163.001 354.619 162.612C354.619 162.223 354.307 161.906 353.913 161.906C353.524 161.906 353.212 162.223 353.212 162.612C353.212 163.001 353.524 163.317 353.913 163.317ZM353.462 173H354.369V165.175H353.462V173ZM356.829 171.56C356.829 172.669 357.405 173.158 358.115 173.158L358.23 172.434C357.837 172.251 357.736 171.805 357.736 170.989V161.359L356.829 161.551V171.56ZM360.773 163.317C361.166 163.317 361.478 163.001 361.478 162.612C361.478 162.223 361.166 161.906 360.773 161.906C360.384 161.906 360.072 162.223 360.072 162.612C360.072 163.001 360.384 163.317 360.773 163.317ZM360.321 173H361.229V165.175H360.321V173ZM363.467 171.632L363.016 172.256C363.726 172.76 364.619 173.158 365.771 173.158C367.346 173.158 368.647 172.419 368.647 170.912C368.647 168.147 364.255 169.217 364.255 167.148C364.255 166.164 365.239 165.828 366.132 165.828C366.823 165.828 367.495 166.035 368.028 166.337L368.421 165.689C367.778 165.276 366.957 165.017 366.064 165.017C364.624 165.017 363.347 165.694 363.347 167.201C363.347 170 367.735 168.934 367.735 170.974C367.735 172.04 366.549 172.338 365.675 172.338C364.821 172.338 364.144 172.054 363.467 171.632ZM370.991 163.317C371.385 163.317 371.697 163.001 371.697 162.612C371.697 162.223 371.385 161.906 370.991 161.906C370.603 161.906 370.291 162.223 370.291 162.612C370.291 163.001 370.603 163.317 370.991 163.317ZM370.54 173H371.447V165.175H370.54V173ZM373.686 171.632L373.235 172.256C373.945 172.76 374.838 173.158 375.99 173.158C377.565 173.158 378.866 172.419 378.866 170.912C378.866 168.147 374.473 169.217 374.473 167.148C374.473 166.164 375.457 165.828 376.35 165.828C377.042 165.828 377.714 166.035 378.246 166.337L378.64 165.689C377.997 165.276 377.176 165.017 376.283 165.017C374.843 165.017 373.566 165.694 373.566 167.201C373.566 170 377.954 168.934 377.954 170.974C377.954 172.04 376.768 172.338 375.894 172.338C375.04 172.338 374.363 172.054 373.686 171.632ZM29.3048 194.175H28.4983L28.3831 195.553C27.7015 194.559 26.7174 194.017 25.498 194.017C23.7171 194.017 21.7297 195.188 21.7297 197.929C21.7297 200.646 23.6835 201.909 25.5077 201.909C26.6934 201.909 27.7543 201.366 28.3879 200.401H28.3975V201.477C28.3975 203.743 27.1302 204.611 25.3828 204.611C24.4803 204.611 23.7747 204.371 22.9874 203.853L22.5266 204.482C23.3666 205.101 24.3123 205.447 25.4548 205.447C27.6919 205.447 29.3048 204.131 29.3048 201.755V194.175ZM25.5653 201.074C23.7939 201.074 22.6466 199.71 22.6466 197.934C22.6466 196.196 23.7507 194.852 25.5077 194.852C27.1686 194.852 28.4359 196.057 28.4359 197.996C28.4359 199.912 27.1974 201.074 25.5653 201.074ZM31.765 202H32.6723V197.838C32.6723 196.278 33.546 194.866 35.1157 194.866C35.3749 194.866 35.6198 194.905 35.8502 194.972L35.9894 194.122C35.7254 194.05 35.4325 194.017 35.1493 194.017C34.0308 194.017 33.2579 194.54 32.6915 195.486H32.6819L32.5667 194.175H31.765V202ZM43.6867 201.462C43.3027 201.285 43.197 200.872 43.197 200.056V196.619C43.197 194.89 42.0641 194.017 40.0623 194.017C39.0782 194.017 38.0221 194.228 37.2253 194.708L37.5325 195.395C38.2718 195.035 39.0878 194.833 39.9711 194.833C41.3777 194.833 42.2994 195.332 42.2994 196.892V197.694C41.5265 197.536 40.744 197.42 39.9471 197.42C37.5853 197.42 36.5004 198.457 36.5004 199.902C36.5004 201.419 37.7005 202.158 39.1982 202.158C40.6816 202.158 41.8913 201.419 42.3234 200.675L42.333 200.68C42.333 201.731 42.9042 202.158 43.5715 202.158L43.6867 201.462ZM42.2994 198.462V199.153C42.2994 200.43 40.7152 201.352 39.2895 201.352C38.3918 201.352 37.4029 200.987 37.4029 199.873C37.4029 198.856 38.2238 198.203 40.0719 198.203C40.936 198.203 41.7521 198.347 42.2994 198.462ZM45.6577 194.175H44.6688L47.7651 202H48.7444L51.9655 194.175H51.0246L48.2835 200.953L45.6577 194.175ZM54.0696 192.317C54.4632 192.317 54.7752 192.001 54.7752 191.612C54.7752 191.223 54.4632 190.906 54.0696 190.906C53.6807 190.906 53.3687 191.223 53.3687 191.612C53.3687 192.001 53.6807 192.317 54.0696 192.317ZM53.6183 202H54.5256V194.175H53.6183V202ZM63.2784 202H64.0753V190.359L63.168 190.551V195.515H63.1584C62.5151 194.55 61.4782 194.017 60.2925 194.017C58.4107 194.017 56.4857 195.351 56.4857 198.14C56.4857 200.949 58.4395 202.158 60.2493 202.158C61.483 202.158 62.4527 201.606 63.1584 200.613L63.2784 202ZM60.2781 201.323C58.5499 201.323 57.4074 200.013 57.4074 198.121C57.4074 196.225 58.5691 194.852 60.3261 194.852C61.939 194.852 63.2112 196.004 63.2112 198.044C63.2112 200.056 61.9678 201.323 60.2781 201.323ZM67.0791 202.158C67.4823 202.158 67.8087 201.832 67.8087 201.434C67.8087 201.03 67.4823 200.704 67.0791 200.704C66.6758 200.704 66.3542 201.03 66.3542 201.434C66.3542 201.832 66.6758 202.158 67.0791 202.158ZM74.1252 190.872H73.1267L76.9671 202H78.0136L81.854 190.872H80.9035L77.5095 200.805L74.1252 190.872ZM84.0227 192.317C84.4163 192.317 84.7284 192.001 84.7284 191.612C84.7284 191.223 84.4163 190.906 84.0227 190.906C83.6339 190.906 83.3218 191.223 83.3218 191.612C83.3218 192.001 83.6339 192.317 84.0227 192.317ZM83.5714 202H84.4787V194.175H83.5714V202ZM87.1733 194.175H86.1844L89.2807 202H90.26L93.4811 194.175H92.5402L89.7992 200.953L87.1733 194.175ZM101.121 201.227L100.674 200.608C99.9496 201.069 99.2007 201.333 98.3174 201.333C96.4788 201.333 95.3411 200.185 95.2307 198.38H101.783C101.798 198.289 101.812 198.088 101.812 197.886C101.812 195.731 100.377 194.017 98.159 194.017C96.018 194.017 94.3042 195.611 94.3042 198.145C94.3042 200.737 96.0948 202.158 98.2742 202.158C99.3447 202.158 100.362 201.813 101.121 201.227ZM95.2499 197.617C95.3747 196.057 96.5364 194.842 98.1638 194.842C99.868 194.842 100.852 196.177 100.895 197.617H95.2499ZM103.609 202H104.516V197.838C104.516 196.278 105.39 194.866 106.959 194.866C107.219 194.866 107.464 194.905 107.694 194.972L107.833 194.122C107.569 194.05 107.276 194.017 106.993 194.017C105.875 194.017 105.102 194.54 104.535 195.486H104.526L104.41 194.175H103.609V202ZM109.124 202H110.032V197.838C110.032 196.278 110.905 194.866 112.475 194.866C112.734 194.866 112.979 194.905 113.21 194.972L113.349 194.122C113.085 194.05 112.792 194.017 112.509 194.017C111.39 194.017 110.617 194.54 110.051 195.486H110.041L109.926 194.175H109.124V202ZM121.046 201.462C120.662 201.285 120.556 200.872 120.556 200.056V196.619C120.556 194.89 119.424 194.017 117.422 194.017C116.438 194.017 115.382 194.228 114.585 194.708L114.892 195.395C115.631 195.035 116.447 194.833 117.331 194.833C118.737 194.833 119.659 195.332 119.659 196.892V197.694C118.886 197.536 118.103 197.42 117.306 197.42C114.945 197.42 113.86 198.457 113.86 199.902C113.86 201.419 115.06 202.158 116.558 202.158C118.041 202.158 119.251 201.419 119.683 200.675L119.692 200.68C119.692 201.731 120.264 202.158 120.931 202.158L121.046 201.462ZM119.659 198.462V199.153C119.659 200.43 118.075 201.352 116.649 201.352C115.751 201.352 114.762 200.987 114.762 199.873C114.762 198.856 115.583 198.203 117.431 198.203C118.295 198.203 119.111 198.347 119.659 198.462ZM127.866 192.317C128.26 192.317 128.572 192.001 128.572 191.612C128.572 191.223 128.26 190.906 127.866 190.906C127.478 190.906 127.166 191.223 127.166 191.612C127.166 192.001 127.478 192.317 127.866 192.317ZM127.415 202H128.322V194.175H127.415V202ZM131.598 194.175H130.801V205.447L131.708 205.255V200.661H131.718C132.361 201.626 133.398 202.158 134.579 202.158C136.461 202.158 138.386 200.824 138.386 198.035C138.386 195.227 136.437 194.017 134.622 194.017C133.393 194.017 132.419 194.569 131.713 195.563L131.598 194.175ZM137.469 198.054C137.469 199.95 136.307 201.323 134.55 201.323C132.937 201.323 131.665 200.171 131.665 198.131C131.665 196.119 132.908 194.852 134.598 194.852C136.326 194.852 137.469 196.163 137.469 198.054ZM140.108 200.632L139.657 201.256C140.367 201.76 141.26 202.158 142.412 202.158C143.987 202.158 145.288 201.419 145.288 199.912C145.288 197.147 140.895 198.217 140.895 196.148C140.895 195.164 141.879 194.828 142.772 194.828C143.463 194.828 144.135 195.035 144.668 195.337L145.062 194.689C144.419 194.276 143.598 194.017 142.705 194.017C141.265 194.017 139.988 194.694 139.988 196.201C139.988 199 144.376 197.934 144.376 199.974C144.376 201.04 143.19 201.338 142.316 201.338C141.462 201.338 140.785 201.054 140.108 200.632ZM153.921 194.175H153.013V198.62C153.013 200.181 151.861 201.314 150.244 201.314C148.688 201.314 147.987 200.267 147.987 198.673V194.175H147.08V198.904C147.08 200.886 148.179 202.158 150.152 202.158C151.362 202.158 152.317 201.678 153.009 200.699L153.124 202H153.921V194.175ZM157.313 202V197.603C157.313 196.129 158.254 194.857 159.776 194.857C161.22 194.857 161.758 196.009 161.758 197.502V202H162.665V197.603C162.665 196.1 163.616 194.852 165.138 194.857C166.597 194.857 167.111 196.023 167.111 197.502V202H168.018V197.272C168.018 195.414 167.115 194.017 165.272 194.017C164 194.017 163.001 194.684 162.421 195.769C162.027 194.646 161.072 194.017 159.867 194.017C158.767 194.017 157.918 194.54 157.318 195.471L157.202 194.175H156.406V202H157.313ZM181.65 202V197.272C181.65 195.275 180.522 194.017 178.544 194.017C177.306 194.017 176.326 194.511 175.63 195.486L175.515 194.175H174.718V202H175.63V197.55C175.63 195.995 176.811 194.857 178.443 194.857C179.999 194.857 180.743 195.894 180.743 197.502V202H181.65ZM190.78 194.175H189.873V198.62C189.873 200.181 188.721 201.314 187.103 201.314C185.548 201.314 184.847 200.267 184.847 198.673V194.175H183.939V198.904C183.939 200.886 185.039 202.158 187.012 202.158C188.221 202.158 189.177 201.678 189.868 200.699L189.983 202H190.78V194.175ZM200.197 202V197.272C200.197 195.275 199.069 194.017 197.091 194.017C195.852 194.017 194.873 194.511 194.177 195.486L194.062 194.175H193.265V202H194.177V197.55C194.177 195.995 195.358 194.857 196.99 194.857C198.546 194.857 199.29 195.894 199.29 197.502V202H200.197ZM208.06 200.805C207.474 201.122 206.84 201.323 206.12 201.323C204.363 201.323 202.966 200.118 202.966 198.116C202.966 196.143 204.325 194.852 206.178 194.852C206.84 194.852 207.44 195.02 208.031 195.308L208.434 194.631C207.796 194.242 206.994 194.017 206.139 194.017C203.878 194.017 202.054 195.591 202.054 198.14C202.054 200.785 204.022 202.158 206.091 202.158C206.98 202.158 207.815 201.904 208.525 201.443L208.06 200.805ZM221.03 201.462C220.646 201.285 220.541 200.872 220.541 200.056V196.619C220.541 194.89 219.408 194.017 217.406 194.017C216.422 194.017 215.366 194.228 214.569 194.708L214.876 195.395C215.616 195.035 216.432 194.833 217.315 194.833C218.721 194.833 219.643 195.332 219.643 196.892V197.694C218.87 197.536 218.088 197.42 217.291 197.42C214.929 197.42 213.844 198.457 213.844 199.902C213.844 201.419 215.044 202.158 216.542 202.158C218.025 202.158 219.235 201.419 219.667 200.675L219.677 200.68C219.677 201.731 220.248 202.158 220.915 202.158L221.03 201.462ZM219.643 198.462V199.153C219.643 200.43 218.059 201.352 216.633 201.352C215.736 201.352 214.747 200.987 214.747 199.873C214.747 198.856 215.568 198.203 217.416 198.203C218.28 198.203 219.096 198.347 219.643 198.462ZM223.047 200.56C223.047 201.669 223.624 202.158 224.334 202.158L224.449 201.434C224.056 201.251 223.955 200.805 223.955 199.989V190.359L223.047 190.551V200.56ZM226.991 192.317C227.385 192.317 227.697 192.001 227.697 191.612C227.697 191.223 227.385 190.906 226.991 190.906C226.603 190.906 226.291 191.223 226.291 191.612C226.291 192.001 226.603 192.317 226.991 192.317ZM226.54 202H227.447V194.175H226.54V202ZM237.002 194.175H236.205L236.085 195.563C235.379 194.569 234.41 194.017 233.176 194.017C231.366 194.017 229.412 195.227 229.412 198.035C229.412 200.824 231.337 202.158 233.219 202.158C234.405 202.158 235.442 201.626 236.085 200.661H236.095V205.447L237.002 205.255V194.175ZM233.253 201.323C231.496 201.323 230.334 199.95 230.334 198.054C230.334 196.163 231.477 194.852 233.205 194.852C234.895 194.852 236.138 196.119 236.138 198.131C236.138 200.171 234.866 201.323 233.253 201.323ZM246.218 194.175H245.31V198.62C245.31 200.181 244.158 201.314 242.54 201.314C240.985 201.314 240.284 200.267 240.284 198.673V194.175H239.377V198.904C239.377 200.886 240.476 202.158 242.449 202.158C243.659 202.158 244.614 201.678 245.305 200.699L245.421 202H246.218V194.175ZM254.996 201.227L254.549 200.608C253.825 201.069 253.076 201.333 252.192 201.333C250.354 201.333 249.216 200.185 249.106 198.38H255.658C255.673 198.289 255.687 198.088 255.687 197.886C255.687 195.731 254.252 194.017 252.034 194.017C249.893 194.017 248.179 195.611 248.179 198.145C248.179 200.737 249.97 202.158 252.149 202.158C253.22 202.158 254.237 201.813 254.996 201.227ZM249.125 197.617C249.25 196.057 250.411 194.842 252.039 194.842C253.743 194.842 254.727 196.177 254.77 197.617H249.125ZM256.466 194.977H257.964V199.629C257.964 201.333 259.245 202.072 260.585 202.158L260.7 201.386C259.538 201.117 258.871 200.766 258.871 199.067V194.977H261.002V194.175H258.871V191.434L257.964 191.626V194.175H256.466V194.977ZM262.954 202.158C263.357 202.158 263.684 201.832 263.684 201.434C263.684 201.03 263.357 200.704 262.954 200.704C262.551 200.704 262.229 201.03 262.229 201.434C262.229 201.832 262.551 202.158 262.954 202.158Z" fill="black" fill-opacity="0.81"/>
</g>
<defs>
<filter id="filter0_f" x="11.4656" y="6.35889" width="394.334" height="209.088" filterUnits="userSpaceOnUse" color-interpolation-filters="sRGB">
<feFlood flood-opacity="0" result="BackgroundImageFix"/>
<feBlend mode="normal" in="SourceGraphic" in2="BackgroundImageFix" result="shape"/>
<feGaussianBlur stdDeviation="5" result="effect1_foregroundBlur"/>
</filter>
</defs>
</svg>
